<svg xmlns="http://www.w3.org/2000/svg" width="211" height="52" viewBox="0 0 211 52" fill="none">
  <path d="M25.3993 0.0124095C10.5039 0.494181 -1.42562 14.0105 0.759033 29.5744C0.706071 29.9358 0.759033 30.2703 0.957637 30.5915C0.970878 30.6316 0.984116 30.6852 0.997357 30.7253C0.997357 31.1536 0.944395 31.5952 1.24892 31.9699L1.26216 32.0234C1.52697 33.6293 1.9639 35.3289 2.83776 36.6404C2.63916 35.8241 2.42731 34.9676 2.17574 34.1512C2.44055 34.981 2.6524 35.8374 2.83776 36.6404C2.851 36.6939 2.86424 36.7475 2.89072 36.801C2.86424 36.975 2.90396 37.1222 3.08933 37.2025C3.11581 37.256 3.12905 37.2961 3.15553 37.3497C3.16877 37.7378 3.38061 38.0188 3.61894 38.2864C3.63218 38.3266 3.64542 38.3667 3.6719 38.4069C3.65866 38.5541 3.69838 38.6612 3.85727 38.6879C3.85727 38.7147 3.87051 38.7281 3.89699 38.7415C3.87051 38.9154 3.89699 39.0493 4.06911 39.1429C4.08235 39.1831 4.10883 39.1965 4.13531 39.2098C15.8133 59.4978 46.8618 54.8272 51.5489 31.0197C51.5754 30.8591 51.5886 30.6985 51.6151 30.538C51.7342 30.4175 51.7475 30.2703 51.6945 30.1097C51.7078 30.0428 51.721 29.9625 51.7343 29.8956C51.8534 29.7618 51.8534 29.6012 51.8137 29.4406C53.9454 13.9169 41.5524 -0.482744 25.3993 0.0124095ZM46.8089 31.3008C46.8089 31.2874 46.8089 31.2874 46.8089 31.274C46.8089 31.4614 46.8221 31.6755 46.8089 31.8495C46.8221 31.6755 46.7956 31.4747 46.8089 31.3008ZM47.0737 29.6146C47.0604 29.9625 47.0207 30.3105 46.928 30.6584C46.9942 30.3105 47.0604 29.9625 47.0737 29.6146ZM47.6033 32.1974C47.3385 32.3045 47.1001 32.5052 46.8486 32.6524C47.2458 32.3714 47.4576 32.2375 47.6033 32.1974ZM30.2585 5.25836C30.1923 5.24498 30.1261 5.24498 30.0466 5.2316C30.1128 5.2316 30.1923 5.24498 30.2585 5.25836ZM4.65168 38.8485C4.99593 38.6879 5.27398 38.7013 5.65795 38.4203C5.56527 38.4872 5.47258 38.5541 5.3799 38.6076C5.14157 38.7281 4.89001 38.7816 4.65168 38.8485ZM6.66421 37.2828C6.87606 36.9883 7.0879 36.8679 7.26003 36.7608C7.0879 36.8947 6.87606 37.0285 6.66421 37.2828ZM7.63075 36.2523C7.65723 36.1185 7.67048 35.9579 7.65724 35.7304C7.68372 35.9579 7.67047 36.1185 7.63075 36.2523ZM46.1468 32.7862C39.765 50.3173 16.7798 52.4184 7.65724 35.7304L7.644 35.7036C7.61752 35.2888 7.40567 34.9676 7.18059 34.6464C1.12976 20.3003 11.5896 4.34835 27.5574 5.01748C27.8222 5.01748 28.087 4.99071 28.3386 4.99071C28.0738 4.99071 27.809 5.01748 27.5574 5.01748C28.1268 5.29851 28.7358 5.19145 29.3316 5.2316H29.3449C29.8612 5.41895 30.4041 5.51263 30.947 5.51263C41.2214 7.93486 48.2785 17.6907 47.0604 28.7715C46.7956 30.0027 46.5308 31.2472 46.266 32.4784C46.213 32.5855 46.1866 32.6926 46.1468 32.7862C46.2925 32.7996 46.4116 32.813 46.5176 32.7862C46.3984 32.813 46.2792 32.8264 46.1468 32.7862ZM46.7162 32.2375C46.7029 32.2509 46.7029 32.2643 46.6897 32.2777C46.7029 32.2643 46.7162 32.2509 46.7162 32.2375ZM48.0799 32.3446C48.2123 32.4115 48.3844 32.4784 48.6757 32.5186C48.5698 32.5186 48.4506 32.532 48.3447 32.532C48.2256 32.5052 48.1461 32.4249 48.0799 32.3446ZM50.0262 32.4784C50.1984 32.4517 50.397 32.4249 50.6088 32.3848C50.4102 32.4383 50.2116 32.465 50.0262 32.4784ZM50.8736 32.3178C50.9001 32.2509 50.9134 32.1974 50.9266 32.1305C50.9266 32.184 50.9398 32.2375 50.9398 32.2911C50.9134 32.3045 50.8869 32.3045 50.8736 32.3178ZM50.9001 31.7959C50.8604 31.5818 50.8339 31.3944 51.0855 31.2205C50.9134 31.3677 50.8869 31.5684 50.9001 31.7959Z" fill="url(#paint0_linear_1_11900)"/>
  <path d="M36.9713 18.5873C33.3832 16.5264 28.6299 17.5301 28.1268 22.214C28.087 22.5887 27.9282 22.9634 28.2989 22.9367C31.4766 19.7918 35.5811 21.8259 35.1309 26.4964C34.9588 27.0719 34.7866 27.6473 34.6278 28.2228C34.5351 28.4101 34.4556 28.5975 34.3629 28.7982C33.1051 30.6718 31.3442 32.2643 29.464 33.4553C30.5895 33.9906 36.5608 32.6256 37.8187 29.3068C37.7525 29.3335 37.6863 29.3469 37.5936 29.3737C37.673 29.3469 37.7525 29.3335 37.8187 29.3068C38.2953 28.7179 38.5998 28.0354 38.8779 27.3261C39.1427 26.9113 39.3148 26.4697 39.2619 25.9611C40.1357 23.2445 39.3678 20.1263 36.9713 18.5873ZM35.2765 29.106C35.2765 29.0926 35.2633 29.0926 35.2633 29.0792C35.2633 29.0926 35.2633 29.106 35.2765 29.106ZM34.3762 29.0792C34.3762 29.2934 34.3629 29.4673 34.4424 29.6145C34.3365 29.4406 34.3497 29.2532 34.3762 29.0792ZM34.4556 29.6547C34.4689 29.6815 34.4953 29.7082 34.5086 29.735C34.4953 29.6948 34.4689 29.6815 34.4556 29.6547ZM35.356 29.1863C35.5943 29.4004 35.9915 29.4807 36.4284 29.4941C35.9915 29.4941 35.5811 29.4138 35.356 29.1863Z" fill="url(#paint1_linear_1_11900)"/>
  <path d="M30.1261 35.2085C29.5965 35.2085 29.0669 35.2085 28.524 35.2218C28.3519 35.2085 28.1798 35.2085 28.0076 35.1951C27.3853 35.0211 26.7763 34.8471 26.154 34.6732H26.1407C25.9554 34.4992 25.7568 34.352 25.4787 34.4055C24.6976 33.8836 22.1157 32.1572 24.9359 33.0806C25.8627 33.4955 29.848 33.0806 27.862 31.5149C22.5261 28.2094 17.2035 26.9648 13.152 33.9773C13.099 34.6732 15.0586 33.6561 20.0634 36.2924C20.3944 36.2389 20.699 36.3058 21.0167 36.3995C20.6857 36.3326 20.368 36.2791 20.0634 36.2924C24.7373 39.4507 31.7149 40.8693 35.9783 36.2924C35.9253 36.0516 35.7797 35.891 35.6076 35.7705C35.7929 35.8776 35.9386 36.0649 35.9783 36.2924C42.2013 29.1729 34.8529 34.8471 30.1261 35.2085ZM34.6013 35.4895C34.5086 35.543 34.4821 35.6367 34.4954 35.7304C34.4557 35.6099 34.4689 35.5163 34.6013 35.4895ZM24.2871 36.6136C24.3401 36.627 24.393 36.6538 24.446 36.6672C24.2606 36.627 24.0488 36.5869 23.8104 36.5333C23.9561 36.5333 24.115 36.5467 24.2871 36.6136ZM22.6983 36.6538C23.0293 36.6404 23.347 36.5601 23.6516 36.5333C23.347 36.6404 23.0293 36.6672 22.6983 36.6538ZM25.5317 36.8813C25.7435 36.8545 25.8892 36.7608 26.0348 36.5467C25.8759 36.801 25.7568 36.8813 25.5317 36.8813ZM27.9414 35.6902C27.7693 35.543 27.5972 35.3958 27.3853 35.3557C27.7031 35.436 27.809 35.5029 27.9414 35.6902ZM28.3122 35.998C28.4843 36.0783 28.6564 36.1051 28.8418 36.1185C28.6299 36.1586 28.4578 36.1051 28.3122 35.998ZM30.1393 35.9445C30.3909 35.9044 30.6292 35.8776 30.8808 35.9044C31.1456 35.9579 31.3707 36.0382 31.5825 36.1185C31.225 36.0248 30.8278 35.9177 30.1393 35.9445ZM32.933 36.0114C33.3038 35.8508 33.4362 35.8776 33.5024 35.998C33.4097 35.9177 33.2508 35.891 32.933 36.0114ZM33.8334 36.5066C33.9128 36.5333 34.032 36.5467 34.1909 36.5333C34.032 36.5601 33.9128 36.5333 33.8334 36.5066ZM34.4027 36.5066C34.5881 36.453 34.6278 36.3326 34.6146 36.1988C34.6543 36.346 34.6278 36.4664 34.4027 36.5066ZM34.6808 35.4895C34.7205 35.4895 34.7602 35.4895 34.7999 35.5029C34.7734 35.4895 34.7205 35.4895 34.6808 35.4895Z" fill="url(#paint2_linear_1_11900)"/>
  <path d="M16.8857 28.3165C17.892 28.196 18.9115 27.8347 20.0369 27.7142C20.4209 27.1254 19.6927 26.1886 19.9575 25.1448C19.9972 24.6898 20.1429 24.5961 19.9575 24.3285C21.03 21.8125 24.1017 20.0728 26.4188 22.4549C26.816 23.0303 27.1337 22.9501 27.1867 22.3746C28.193 15.496 14.8864 15.1748 15.5749 25.0377C15.6676 26.1351 16.0648 27.5536 16.8857 28.3165ZM19.3882 26.8444C19.5868 26.4964 19.653 25.7336 19.7721 25.0779C19.6662 25.747 19.6 26.6035 19.3882 26.8444ZM19.0836 26.7105C18.8983 26.5901 18.7129 26.5098 18.5143 26.4697C18.5673 26.4697 18.6202 26.4697 18.6732 26.4563C18.8188 26.4295 18.9645 26.5767 19.0836 26.7105ZM17.3491 26.202C16.9652 26.0682 16.5415 25.8541 16.0384 25.4392C16.4091 25.7336 16.8725 26.0147 17.3491 26.202Z" fill="url(#paint3_linear_1_11900)"/>
  <path d="M30.1128 16.4729C29.517 16.6603 27.7031 16.9949 26.4055 16.754C27.531 16.9279 29.186 16.7406 30.1128 16.4729C30.5498 15.6834 30.51 14.934 30.0069 14.4522C29.0933 11.8158 24.5254 12.7526 25.386 16.3391C25.8097 18.5205 29.3449 18.7614 30.1128 16.4729Z" fill="url(#paint4_linear_1_11900)"/>
  <path d="M77.6131 22.7667C77.5512 22.1353 77.2853 21.6447 76.8154 21.2951C76.3456 20.9454 75.708 20.7706 74.9025 20.7706C74.3552 20.7706 73.8932 20.8489 73.5163 21.0055C73.1394 21.1568 72.8502 21.3681 72.6489 21.6395C72.4527 21.9109 72.3546 22.2188 72.3546 22.5632C72.3442 22.8502 72.4036 23.1007 72.5327 23.3146C72.6669 23.5286 72.8502 23.7139 73.0826 23.8704C73.3149 24.0217 73.5834 24.1548 73.888 24.2696C74.1926 24.3792 74.5179 24.4731 74.8638 24.5514L76.2888 24.8958C76.9807 25.0524 77.6157 25.2611 78.194 25.5221C78.7722 25.783 79.273 26.1039 79.6964 26.4849C80.1198 26.8658 80.4476 27.3146 80.68 27.8312C80.9175 28.3479 81.0388 28.9402 81.044 29.6081C81.0388 30.5892 80.791 31.4398 80.3005 32.16C79.8152 32.8749 79.113 33.4307 78.194 33.8273C77.2801 34.2187 76.1778 34.4144 74.887 34.4144C73.6066 34.4144 72.4914 34.2161 71.5414 33.8195C70.5966 33.4229 69.8582 32.8358 69.3265 32.0582C68.7998 31.2754 68.5236 30.3074 68.4978 29.1541H71.7427C71.7789 29.6916 71.9312 30.1404 72.1997 30.5005C72.4733 30.8554 72.8373 31.1241 73.2917 31.3068C73.7512 31.4842 74.2701 31.5729 74.8483 31.5729C75.4163 31.5729 75.9093 31.4894 76.3275 31.3224C76.7509 31.1554 77.0788 30.9232 77.3111 30.6257C77.5434 30.3283 77.6596 29.9865 77.6596 29.6003C77.6596 29.2402 77.5537 28.9376 77.3421 28.6923C77.1355 28.447 76.8309 28.2383 76.4282 28.0661C76.0307 27.8939 75.5427 27.7373 74.9645 27.5964L73.2374 27.1581C71.9002 26.8293 70.8444 26.3153 70.0699 25.616C69.2955 24.9167 68.9108 23.9748 68.916 22.7902C68.9108 21.8195 69.1664 20.9715 69.6827 20.2462C70.2042 19.5208 70.9192 18.9546 71.8279 18.5475C72.7366 18.1405 73.7692 17.937 74.9258 17.937C76.1029 17.937 77.1304 18.1405 78.0081 18.5475C78.891 18.9546 79.5777 19.5208 80.0681 20.2462C80.5586 20.9715 80.8116 21.8117 80.8271 22.7667H77.6131Z" fill="black"/>
  <path d="M88.6588 34.4222C87.4352 34.4222 86.3819 34.1717 85.499 33.6707C84.6213 33.1645 83.9449 32.4496 83.4699 31.5259C82.9949 30.597 82.7574 29.4985 82.7574 28.2305C82.7574 26.9937 82.9949 25.9082 83.4699 24.9741C83.9449 24.04 84.6136 23.312 85.4758 22.7902C86.3432 22.2683 87.3603 22.0074 88.5271 22.0074C89.3119 22.0074 90.0425 22.1353 90.7188 22.391C91.4004 22.6414 91.9941 23.0198 92.5001 23.526C93.0112 24.0322 93.4088 24.6688 93.6928 25.436C93.9767 26.1979 94.1187 27.0902 94.1187 28.113V29.0289H84.074V26.9624H91.0131C91.0131 26.4823 90.9099 26.057 90.7034 25.6864C90.4968 25.3159 90.2103 25.0263 89.8437 24.8176C89.4823 24.6036 89.0615 24.4966 88.5814 24.4966C88.0805 24.4966 87.6365 24.614 87.2493 24.8489C86.8672 25.0785 86.5678 25.389 86.3509 25.7804C86.1341 26.1665 86.0231 26.5971 86.0179 27.072V29.0367C86.0179 29.6316 86.1263 30.1456 86.3432 30.5788C86.5652 31.0119 86.8775 31.3459 87.2803 31.5807C87.683 31.8156 88.1606 31.933 88.713 31.933C89.0796 31.933 89.4152 31.8808 89.7198 31.7764C90.0244 31.6721 90.2852 31.5155 90.502 31.3068C90.7188 31.098 90.8841 30.8423 90.9977 30.5396L94.049 30.7432C93.8941 31.4842 93.5766 32.1313 93.0964 32.6844C92.6214 33.2324 92.007 33.6603 91.2532 33.9682C90.5046 34.2709 89.6398 34.4222 88.6588 34.4222Z" fill="black"/>
  <path d="M99.5709 27.2363V34.1874H96.2717V22.164H99.416V24.2853H99.5554C99.8187 23.586 100.26 23.0328 100.88 22.6258C101.499 22.2135 102.25 22.0074 103.133 22.0074C103.959 22.0074 104.68 22.1901 105.294 22.5553C105.909 22.9206 106.386 23.4425 106.727 24.1209C107.068 24.7941 107.238 25.5977 107.238 26.5318V34.1874H103.939V27.1267C103.944 26.3909 103.758 25.8169 103.381 25.4046C103.004 24.9872 102.485 24.7784 101.825 24.7784C101.381 24.7784 100.988 24.875 100.647 25.068C100.312 25.2611 100.048 25.5429 99.8574 25.9134C99.6716 26.2787 99.576 26.7197 99.5709 27.2363Z" fill="black"/>
  <path d="M114.222 34.3831C113.318 34.3831 112.5 34.1482 111.767 33.6786C111.039 33.2037 110.46 32.507 110.032 31.5886C109.608 30.6649 109.397 29.5325 109.397 28.1913C109.397 26.8136 109.616 25.6682 110.055 24.7549C110.494 23.8365 111.077 23.1503 111.805 22.6962C112.538 22.237 113.341 22.0074 114.214 22.0074C114.88 22.0074 115.435 22.1222 115.879 22.3518C116.328 22.5762 116.69 22.858 116.963 23.1972C117.242 23.5312 117.454 23.86 117.598 24.1835H117.699V18.1562H120.99V34.1874H117.738V32.2617H117.598C117.443 32.5957 117.224 32.9271 116.94 33.2559C116.661 33.5794 116.297 33.8482 115.848 34.0621C115.404 34.2761 114.862 34.3831 114.222 34.3831ZM115.267 31.7295C115.799 31.7295 116.248 31.5833 116.615 31.2911C116.986 30.9936 117.27 30.5788 117.467 30.0465C117.668 29.5142 117.769 28.8906 117.769 28.1757C117.769 27.4607 117.671 26.8397 117.474 26.3127C117.278 25.7856 116.994 25.3785 116.622 25.0915C116.251 24.8045 115.799 24.661 115.267 24.661C114.725 24.661 114.268 24.8097 113.896 25.1072C113.525 25.4046 113.243 25.8169 113.052 26.344C112.861 26.871 112.766 27.4816 112.766 28.1757C112.766 28.8749 112.861 29.4933 113.052 30.0308C113.248 30.5631 113.53 30.9806 113.896 31.2833C114.268 31.5807 114.725 31.7295 115.267 31.7295Z" fill="black"/>
  <path d="M123.765 18.1562H127.9L132.268 28.9271H132.454L136.822 18.1562H140.958V34.1874H137.705V23.753H137.573L133.469 34.1091H131.254L127.149 23.7139H127.018V34.1874H123.765V18.1562Z" fill="black"/>
  <path d="M149.08 34.4222C147.856 34.4222 146.803 34.1717 145.92 33.6707C145.042 33.1645 144.366 32.4496 143.891 31.5259C143.416 30.597 143.179 29.4985 143.179 28.2305C143.179 26.9937 143.416 25.9082 143.891 24.9741C144.366 24.04 145.035 23.312 145.897 22.7902C146.764 22.2683 147.781 22.0074 148.948 22.0074C149.733 22.0074 150.464 22.1353 151.14 22.391C151.821 22.6414 152.415 23.0198 152.921 23.526C153.432 24.0322 153.83 24.6688 154.114 25.436C154.398 26.1979 154.54 27.0902 154.54 28.113V29.0289H144.495V26.9624H151.434C151.434 26.4823 151.331 26.057 151.124 25.6864C150.918 25.3159 150.631 25.0263 150.265 24.8176C149.903 24.6036 149.483 24.4966 149.002 24.4966C148.502 24.4966 148.058 24.614 147.67 24.8489C147.288 25.0785 146.989 25.389 146.772 25.7804C146.555 26.1665 146.444 26.5971 146.439 27.072V29.0367C146.439 29.6316 146.547 30.1456 146.764 30.5788C146.986 31.0119 147.299 31.3459 147.701 31.5807C148.104 31.8156 148.582 31.933 149.134 31.933C149.501 31.933 149.836 31.8808 150.141 31.7764C150.445 31.6721 150.706 31.5155 150.923 31.3068C151.14 31.098 151.305 30.8423 151.419 30.5396L154.47 30.7432C154.315 31.4842 153.998 32.1313 153.518 32.6844C153.042 33.2324 152.428 33.6603 151.674 33.9682C150.926 34.2709 150.061 34.4222 149.08 34.4222Z" fill="black"/>
  <path d="M156.755 34.1874V18.1562H160.108V24.7706H166.916V18.1562H170.261V34.1874H166.916V27.5651H160.108V34.1874H156.755Z" fill="black"/>
  <path d="M180.592 29.068V22.164H183.892V34.1874H180.724V32.0034H180.6C180.332 32.7079 179.885 33.2741 179.26 33.702C178.641 34.13 177.884 34.3439 176.991 34.3439C176.196 34.3439 175.497 34.1613 174.892 33.796C174.288 33.4307 173.816 32.9114 173.475 32.2383C173.14 31.5651 172.969 30.7588 172.964 29.8195V22.164H176.263V29.2246C176.268 29.9343 176.457 30.4953 176.829 30.9075C177.2 31.3198 177.699 31.5259 178.323 31.5259C178.721 31.5259 179.093 31.4346 179.439 31.252C179.784 31.0641 180.063 30.7875 180.275 30.4222C180.492 30.0569 180.598 29.6055 180.592 29.068Z" fill="black"/>
  <path d="M191.89 38.9466C190.821 38.9466 189.905 38.7979 189.141 38.5004C188.382 38.2082 187.777 37.809 187.328 37.3028C186.879 36.7966 186.587 36.2278 186.453 35.5964L189.505 35.1815C189.597 35.4215 189.745 35.6459 189.946 35.8547C190.147 36.0634 190.413 36.2304 190.744 36.3556C191.079 36.4861 191.487 36.5513 191.967 36.5513C192.685 36.5513 193.276 36.3739 193.741 36.0191C194.211 35.6694 194.446 35.0823 194.446 34.2578V32.0582H194.306C194.162 32.3922 193.945 32.7079 193.656 33.0054C193.366 33.3028 192.995 33.5455 192.54 33.7334C192.086 33.9212 191.544 34.0152 190.914 34.0152C190.021 34.0152 189.208 33.8064 188.474 33.3889C187.746 32.9662 187.166 32.3218 186.732 31.4555C186.303 30.584 186.089 29.4829 186.089 28.1522C186.089 26.7901 186.309 25.6525 186.747 24.7393C187.186 23.826 187.77 23.1424 188.498 22.6884C189.231 22.2344 190.034 22.0074 190.906 22.0074C191.572 22.0074 192.13 22.1222 192.579 22.3518C193.028 22.5762 193.39 22.858 193.663 23.1972C193.942 23.5312 194.156 23.86 194.306 24.1835H194.43V22.164H197.706V34.3048C197.706 35.3276 197.458 36.1834 196.963 36.8723C196.467 37.5611 195.78 38.0777 194.902 38.4222C194.03 38.7718 193.026 38.9466 191.89 38.9466ZM191.96 31.5103C192.491 31.5103 192.941 31.3772 193.307 31.1111C193.679 30.8397 193.963 30.4535 194.159 29.9526C194.36 29.4464 194.461 28.841 194.461 28.1365C194.461 27.432 194.363 26.8215 194.167 26.3048C193.971 25.783 193.687 25.3785 193.315 25.0915C192.943 24.8045 192.491 24.661 191.96 24.661C191.417 24.661 190.96 24.8097 190.589 25.1072C190.217 25.3994 189.936 25.8065 189.745 26.3283C189.554 26.8502 189.458 27.4529 189.458 28.1365C189.458 28.8306 189.554 29.4307 189.745 29.9369C189.941 30.4379 190.222 30.8267 190.589 31.1032C190.96 31.3746 191.417 31.5103 191.96 31.5103Z" fill="black"/>
  <path d="M210.229 25.5925L207.209 25.7804C207.157 25.5194 207.046 25.2846 206.876 25.0759C206.705 24.8619 206.481 24.6923 206.202 24.5671C205.928 24.4366 205.6 24.3714 205.218 24.3714C204.707 24.3714 204.276 24.481 203.925 24.7001C203.574 24.9141 203.398 25.2011 203.398 25.5612C203.398 25.8482 203.512 26.0909 203.739 26.2892C203.966 26.4875 204.356 26.6466 204.908 26.7667L207.061 27.205C208.218 27.4451 209.08 27.8312 209.648 28.3635C210.216 28.8958 210.5 29.5951 210.5 30.4614C210.5 31.2494 210.27 31.9408 209.811 32.5357C209.356 33.1306 208.732 33.5951 207.937 33.929C207.147 34.2578 206.235 34.4222 205.203 34.4222C203.628 34.4222 202.373 34.0908 201.439 33.4281C200.51 32.7601 199.965 31.8521 199.805 30.704L203.05 30.5318C203.148 31.0171 203.385 31.3876 203.762 31.6434C204.139 31.8938 204.622 32.0191 205.21 32.0191C205.789 32.0191 206.253 31.9069 206.604 31.6825C206.961 31.4529 207.141 31.158 207.147 30.798C207.141 30.4953 207.015 30.2474 206.767 30.0543C206.519 29.856 206.137 29.7047 205.621 29.6003L203.561 29.1854C202.399 28.9506 201.534 28.5436 200.966 27.9643C200.404 27.3851 200.122 26.6466 200.122 25.7491C200.122 24.9767 200.329 24.3114 200.742 23.753C201.16 23.1946 201.746 22.7641 202.5 22.4614C203.259 22.1587 204.147 22.0074 205.164 22.0074C206.666 22.0074 207.849 22.3283 208.711 22.9702C209.578 23.6121 210.084 24.4862 210.229 25.5925Z" fill="black"/>
  <defs>
    <linearGradient id="paint0_linear_1_11900" x1="105.5" y1="0" x2="105.5" y2="52" gradientUnits="userSpaceOnUse">
      <stop stopColor="#2ED7B4"/>
      <stop offset="1" stopColor="#22816F"/>
    </linearGradient>
    <linearGradient id="paint1_linear_1_11900" x1="105.5" y1="0" x2="105.5" y2="52" gradientUnits="userSpaceOnUse">
      <stop stopColor="#2ED7B4"/>
      <stop offset="1" stopColor="#22816F"/>
    </linearGradient>
    <linearGradient id="paint2_linear_1_11900" x1="105.5" y1="0" x2="105.5" y2="52" gradientUnits="userSpaceOnUse">
      <stop stopColor="#2ED7B4"/>
      <stop offset="1" stopColor="#22816F"/>
    </linearGradient>
    <linearGradient id="paint3_linear_1_11900" x1="105.5" y1="0" x2="105.5" y2="52" gradientUnits="userSpaceOnUse">
      <stop stopColor="#2ED7B4"/>
      <stop offset="1" stopColor="#22816F"/>
    </linearGradient>
    <linearGradient id="paint4_linear_1_11900" x1="105.5" y1="0" x2="105.5" y2="52" gradientUnits="userSpaceOnUse">
      <stop stopColor="#2ED7B4"/>
      <stop offset="1" stopColor="#22816F"/>
    </linearGradient>
  </defs>
</svg>