<svg xmlns="http://www.w3.org/2000/svg" width="16" height="16" viewBox="0 0 16 16" fill="none">
  <path d="M8.00005 10.3996C7.86392 10.3989 7.72965 10.3679 7.60698 10.3089C7.48432 10.2499 7.37633 10.1642 7.29085 10.0583L5.04596 7.33828C4.91478 7.17453 4.83223 6.97721 4.80772 6.76882C4.78321 6.56043 4.81772 6.34934 4.90732 6.15961C4.97999 5.99472 5.09857 5.85423 5.24891 5.75493C5.39926 5.65563 5.575 5.60171 5.75515 5.59961H10.2449C10.4251 5.60171 10.6008 5.65563 10.7512 5.75493C10.9015 5.85423 11.0201 5.99472 11.0928 6.15961C11.1824 6.34934 11.2169 6.56043 11.1924 6.76882C11.1679 6.97721 11.0853 7.17453 10.9541 7.33828L8.70924 10.0583C8.62377 10.1642 8.51578 10.2499 8.39311 10.3089C8.27045 10.3679 8.13618 10.3989 8.00005 10.3996Z" fill="white"/>
</svg>