<svg width="159" height="158" viewBox="0 0 159 158" fill="none" xmlns="http://www.w3.org/2000/svg">
<circle cx="79.5" cy="79" r="79" fill="#D8E3E4" fill-opacity="0.62"/>
<g filter="url(#filter0_ii_140_4029)">
<path d="M148.848 79.3426C152.348 79.3426 155.213 76.5001 154.919 73.0123C153.69 58.4326 148.235 44.4751 139.157 32.8845C128.771 19.6253 114.243 10.2282 97.8908 6.19364C81.5389 2.1591 64.3067 3.71982 48.9457 10.6266C33.5848 17.5334 20.981 29.3878 13.1468 44.2972C5.31268 59.2065 2.70002 76.3109 5.726 92.8791C8.75198 109.447 17.2421 124.524 29.8407 135.701C42.4393 146.879 58.4198 153.513 75.2305 154.544C89.9256 155.445 104.514 152.02 117.218 144.761C120.257 143.025 120.973 139.053 118.987 136.17C117.002 133.288 113.068 132.592 110 134.276C99.6545 139.956 87.8721 142.62 76.0064 141.892C62.0238 141.035 48.7318 135.517 38.2527 126.22C27.7736 116.923 20.7118 104.383 18.1949 90.6018C15.678 76.8209 17.8511 62.5941 24.3673 50.193C30.8835 37.7919 41.3669 27.9318 54.1436 22.1869C66.9203 16.4421 81.2535 15.144 94.8545 18.4998C108.455 21.8556 120.54 29.6718 129.178 40.7003C136.508 50.0593 140.998 61.2736 142.19 73.0156C142.543 76.4978 145.347 79.3426 148.848 79.3426Z" fill="url(#paint0_linear_140_4029)"/>
</g>
<path d="M67.0156 67.25V69.6719L58.2188 90H53.4688L62.2656 70.7656H50.9375V67.25H67.0156ZM74.1719 79.6406L70.5781 78.7812L71.875 67.25H84.6562V70.8906H75.5781L75.0156 75.9375C75.3177 75.7604 75.776 75.5729 76.3906 75.375C77.0052 75.1667 77.6927 75.0625 78.4531 75.0625C79.5573 75.0625 80.5365 75.2344 81.3906 75.5781C82.2448 75.9219 82.9688 76.4219 83.5625 77.0781C84.1667 77.7344 84.625 78.5365 84.9375 79.4844C85.25 80.4323 85.4062 81.5052 85.4062 82.7031C85.4062 83.7135 85.25 84.6771 84.9375 85.5938C84.625 86.5 84.151 87.3125 83.5156 88.0312C82.8802 88.7396 82.0833 89.2969 81.125 89.7031C80.1667 90.1094 79.0312 90.3125 77.7188 90.3125C76.7396 90.3125 75.7917 90.1667 74.875 89.875C73.9688 89.5833 73.151 89.151 72.4219 88.5781C71.7031 88.0052 71.125 87.3125 70.6875 86.5C70.2604 85.6771 70.0365 84.7396 70.0156 83.6875H74.4844C74.5469 84.3333 74.7135 84.8906 74.9844 85.3594C75.2656 85.8177 75.6354 86.1719 76.0938 86.4219C76.5521 86.6719 77.0885 86.7969 77.7031 86.7969C78.276 86.7969 78.7656 86.6875 79.1719 86.4688C79.5781 86.25 79.9062 85.9479 80.1562 85.5625C80.4062 85.1667 80.5885 84.7083 80.7031 84.1875C80.8281 83.6562 80.8906 83.0833 80.8906 82.4688C80.8906 81.8542 80.8177 81.2969 80.6719 80.7969C80.526 80.2969 80.3021 79.8646 80 79.5C79.6979 79.1354 79.3125 78.8542 78.8438 78.6562C78.3854 78.4583 77.849 78.3594 77.2344 78.3594C76.401 78.3594 75.7552 78.4896 75.2969 78.75C74.849 79.0104 74.474 79.3073 74.1719 79.6406ZM88.25 72.8281V71.625C88.25 70.7604 88.4375 69.974 88.8125 69.2656C89.1875 68.5573 89.7396 67.9896 90.4688 67.5625C91.1979 67.1354 92.0938 66.9219 93.1562 66.9219C94.25 66.9219 95.1615 67.1354 95.8906 67.5625C96.6302 67.9896 97.1823 68.5573 97.5469 69.2656C97.9219 69.974 98.1094 70.7604 98.1094 71.625V72.8281C98.1094 73.6719 97.9219 74.4479 97.5469 75.1562C97.1823 75.8646 96.6354 76.4323 95.9062 76.8594C95.1771 77.2865 94.276 77.5 93.2031 77.5C92.1198 77.5 91.2083 77.2865 90.4688 76.8594C89.7396 76.4323 89.1875 75.8646 88.8125 75.1562C88.4375 74.4479 88.25 73.6719 88.25 72.8281ZM91.2344 71.625V72.8281C91.2344 73.1927 91.3021 73.5417 91.4375 73.875C91.5833 74.1979 91.8021 74.4635 92.0938 74.6719C92.3958 74.8698 92.7604 74.9688 93.1875 74.9688C93.6354 74.9688 94 74.8698 94.2812 74.6719C94.5625 74.4635 94.7708 74.1979 94.9062 73.875C95.0417 73.5417 95.1094 73.1927 95.1094 72.8281V71.625C95.1094 71.2396 95.0365 70.8854 94.8906 70.5625C94.7552 70.2292 94.5417 69.9635 94.25 69.7656C93.9688 69.5573 93.6042 69.4531 93.1562 69.4531C92.7396 69.4531 92.3854 69.5573 92.0938 69.7656C91.8021 69.9635 91.5833 70.2292 91.4375 70.5625C91.3021 70.8854 91.2344 71.2396 91.2344 71.625ZM99.125 85.625V84.4219C99.125 83.5677 99.3125 82.7865 99.6875 82.0781C100.073 81.3698 100.63 80.8021 101.359 80.375C102.099 79.9479 103.005 79.7344 104.078 79.7344C105.161 79.7344 106.068 79.9479 106.797 80.375C107.526 80.8021 108.078 81.3698 108.453 82.0781C108.828 82.7865 109.016 83.5677 109.016 84.4219V85.625C109.016 86.4792 108.828 87.2604 108.453 87.9688C108.089 88.6771 107.542 89.2448 106.812 89.6719C106.083 90.099 105.182 90.3125 104.109 90.3125C103.026 90.3125 102.115 90.099 101.375 89.6719C100.635 89.2448 100.073 88.6771 99.6875 87.9688C99.3125 87.2604 99.125 86.4792 99.125 85.625ZM102.125 84.4219V85.625C102.125 86 102.208 86.3542 102.375 86.6875C102.542 87.0208 102.771 87.2865 103.062 87.4844C103.365 87.6823 103.714 87.7812 104.109 87.7812C104.609 87.7812 105 87.6823 105.281 87.4844C105.562 87.2865 105.755 87.0208 105.859 86.6875C105.974 86.3542 106.031 86 106.031 85.625V84.4219C106.031 84.0469 105.958 83.6979 105.812 83.375C105.667 83.0417 105.448 82.776 105.156 82.5781C104.875 82.3698 104.516 82.2656 104.078 82.2656C103.641 82.2656 103.276 82.3698 102.984 82.5781C102.703 82.776 102.49 83.0417 102.344 83.375C102.198 83.6979 102.125 84.0469 102.125 84.4219ZM105.188 70.5L94.0781 88.2812L91.8906 87.125L103 69.3438L105.188 70.5Z" fill="black"/>
<defs>
<filter id="filter0_ii_140_4029" x="4.5" y="4" width="150.439" height="151.686" filterUnits="userSpaceOnUse" color-interpolation-filters="sRGB">
<feFlood flood-opacity="0" result="BackgroundImageFix"/>
<feBlend mode="normal" in="SourceGraphic" in2="BackgroundImageFix" result="shape"/>
<feColorMatrix in="SourceAlpha" type="matrix" values="0 0 0 0 0 0 0 0 0 0 0 0 0 0 0 0 0 0 127 0" result="hardAlpha"/>
<feOffset dy="1"/>
<feGaussianBlur stdDeviation="1"/>
<feComposite in2="hardAlpha" operator="arithmetic" k2="-1" k3="1"/>
<feColorMatrix type="matrix" values="0 0 0 0 1 0 0 0 0 1 0 0 0 0 1 0 0 0 0.25 0"/>
<feBlend mode="normal" in2="shape" result="effect1_innerShadow_140_4029"/>
<feColorMatrix in="SourceAlpha" type="matrix" values="0 0 0 0 0 0 0 0 0 0 0 0 0 0 0 0 0 0 127 0" result="hardAlpha"/>
<feOffset/>
<feGaussianBlur stdDeviation="1"/>
<feComposite in2="hardAlpha" operator="arithmetic" k2="-1" k3="1"/>
<feColorMatrix type="matrix" values="0 0 0 0 0 0 0 0 0 0 0 0 0 0 0 0 0 0 0.1 0"/>
<feBlend mode="normal" in2="effect1_innerShadow_140_4029" result="effect2_innerShadow_140_4029"/>
</filter>
<linearGradient id="paint0_linear_140_4029" x1="79.8426" y1="154.74" x2="130.42" y2="22.6592" gradientUnits="userSpaceOnUse">
<stop stop-color="#33A4E3"/>
<stop offset="1" stop-color="#50D35D"/>
</linearGradient>
</defs>
</svg>
