<svg xmlns="http://www.w3.org/2000/svg" width="25" height="24" viewBox="0 0 25 24" fill="none">
  <path d="M12.5 5.44133C14.636 5.44133 14.8893 5.44933 15.7327 5.488C16.6047 5.528 17.5027 5.72667 18.138 6.362C18.7793 7.00333 18.972 7.89267 19.012 8.76733C19.0507 9.61067 19.0587 9.864 19.0587 12C19.0587 14.136 19.0507 14.3893 19.012 15.2327C18.9727 16.1 18.7693 17.0067 18.138 17.638C17.4967 18.2793 16.608 18.472 15.7327 18.512C14.8893 18.5507 14.636 18.5587 12.5 18.5587C10.364 18.5587 10.1107 18.5507 9.26733 18.512C8.40667 18.4727 7.488 18.2647 6.862 17.638C6.224 17 6.028 16.102 5.988 15.2327C5.94933 14.3893 5.94133 14.136 5.94133 12C5.94133 9.864 5.94933 9.61067 5.988 8.76733C6.02733 7.90333 6.23267 6.99133 6.862 6.362C7.502 5.722 8.39467 5.528 9.26733 5.488C10.1107 5.44933 10.364 5.44133 12.5 5.44133ZM12.5 4C10.3273 4 10.0547 4.00933 9.20133 4.048C7.96467 4.10467 6.73667 4.44867 5.84267 5.34267C4.94533 6.24 4.60467 7.46533 4.548 8.70133C4.50933 9.55467 4.5 9.82733 4.5 12C4.5 14.1727 4.50933 14.4453 4.548 15.2987C4.60467 16.534 4.95 17.7653 5.84267 18.6573C6.73933 19.554 7.96667 19.8953 9.20133 19.952C10.0547 19.9907 10.3273 20 12.5 20C14.6727 20 14.9453 19.9907 15.7987 19.952C17.0347 19.8953 18.264 19.5507 19.1573 18.6573C20.0553 17.7593 20.3953 16.5347 20.452 15.2987C20.4907 14.4453 20.5 14.1727 20.5 12C20.5 9.82733 20.4907 9.55467 20.452 8.70133C20.3953 7.46467 20.0507 6.236 19.1573 5.34267C18.262 4.44733 17.0313 4.104 15.7987 4.048C14.9453 4.00933 14.6727 4 12.5 4Z" fill="white"/>
  <path d="M12.4996 7.89209C10.2309 7.89209 8.3916 9.73142 8.3916 12.0001C8.3916 14.2688 10.2309 16.1081 12.4996 16.1081C14.7683 16.1081 16.6076 14.2688 16.6076 12.0001C16.6076 9.73142 14.7683 7.89209 12.4996 7.89209ZM12.4996 14.6668C11.0269 14.6668 9.83294 13.4728 9.83294 12.0001C9.83294 10.5274 11.0269 9.33342 12.4996 9.33342C13.9723 9.33342 15.1663 10.5274 15.1663 12.0001C15.1663 13.4728 13.9723 14.6668 12.4996 14.6668Z" fill="white"/>
  <path d="M16.7705 8.68929C17.3007 8.68929 17.7305 8.25948 17.7305 7.72929C17.7305 7.19909 17.3007 6.76929 16.7705 6.76929C16.2404 6.76929 15.8105 7.19909 15.8105 7.72929C15.8105 8.25948 16.2404 8.68929 16.7705 8.68929Z" fill="white"/>
</svg>