<svg width="24" height="24" viewBox="0 0 24 24" fill="none" xmlns="http://www.w3.org/2000/svg">
<path d="M12.0002 2C11.5268 2 11.1431 2.38376 11.1431 2.85714C11.1431 3.33053 11.5268 3.71429 12.0002 3.71429C16.5763 3.71429 20.2859 7.42393 20.2859 12C20.2859 16.5761 16.5763 20.2857 12.0002 20.2857C11.5268 20.2857 11.1431 20.6695 11.1431 21.1429C11.1431 21.6162 11.5268 22 12.0002 22C17.5231 22 22.0002 17.5229 22.0002 12C22.0002 6.47715 17.5231 2 12.0002 2Z" fill="white"/>
<path d="M10.2511 9.17759C9.91634 8.84285 9.91634 8.30014 10.2511 7.9654C10.5858 7.63067 11.1285 7.63067 11.4632 7.9654L14.8918 11.394C15.2265 11.7288 15.2265 12.2714 14.8918 12.6061L11.4632 16.0347C11.1285 16.3694 10.5858 16.3694 10.2511 16.0347C9.91634 15.7 9.91634 15.1573 10.2511 14.8226L12.2163 12.8572H2.85714C2.38376 12.8572 2 12.4734 2 12.0001C2 11.5267 2.38376 11.1429 2.85714 11.1429H12.2163L10.2511 9.17759Z" fill="white"/>
</svg>
