<svg width="130" height="32" viewBox="0 0 130 32" fill="none" xmlns="http://www.w3.org/2000/svg">
<path d="M15.3172 0.00763659C6.15408 0.304111 -1.18458 8.62187 0.159349 18.1996C0.126768 18.422 0.159349 18.6279 0.281524 18.8255C0.289669 18.8502 0.297813 18.8832 0.305958 18.9079C0.305958 19.1714 0.273377 19.4432 0.460713 19.6738L0.468858 19.7067C0.631758 20.695 0.900543 21.7409 1.43811 22.5479C1.31594 22.0456 1.18562 21.5185 1.03086 21.0161C1.19376 21.5267 1.32408 22.0538 1.43811 22.5479C1.44626 22.5809 1.4544 22.6138 1.47069 22.6468C1.4544 22.7538 1.47884 22.8444 1.59287 22.8938C1.60916 22.9268 1.6173 22.9515 1.63359 22.9844C1.64174 23.2232 1.77206 23.3962 1.91867 23.5609C1.92681 23.5856 1.93496 23.6103 1.95125 23.635C1.94311 23.7256 1.96754 23.7915 2.06528 23.808C2.06528 23.8244 2.07343 23.8327 2.08972 23.8409C2.07343 23.948 2.08972 24.0303 2.1956 24.088C2.20375 24.1127 2.22004 24.1209 2.23633 24.1291C9.42023 36.614 28.5203 33.7398 31.4036 19.0891C31.4199 18.9902 31.4281 18.8914 31.4443 18.7926C31.5177 18.7185 31.5258 18.6279 31.4932 18.5291C31.5014 18.4879 31.5095 18.4385 31.5177 18.3973C31.591 18.3149 31.591 18.2161 31.5665 18.1173C32.8779 8.56422 25.2541 -0.297073 15.3172 0.00763659ZM28.4877 19.262C28.4877 19.2538 28.4877 19.2538 28.4877 19.2455C28.4877 19.3608 28.4958 19.4926 28.4877 19.5997C28.4958 19.4926 28.4796 19.3691 28.4877 19.262ZM28.6506 18.2243C28.6425 18.4385 28.618 18.6526 28.561 18.8667C28.6017 18.6526 28.6425 18.4385 28.6506 18.2243ZM28.9764 19.8138C28.8135 19.8797 28.6669 20.0032 28.5121 20.0938C28.7565 19.9208 28.8868 19.8385 28.9764 19.8138ZM18.3064 3.23592C18.2657 3.22768 18.225 3.22768 18.1761 3.21944C18.2168 3.21944 18.2657 3.22768 18.3064 3.23592ZM2.55398 23.9068C2.76575 23.808 2.9368 23.8162 3.173 23.6432C3.11599 23.6844 3.05897 23.7256 3.00196 23.7585C2.85535 23.8327 2.70059 23.8656 2.55398 23.9068ZM3.79202 22.9432C3.92234 22.7621 4.05266 22.6879 4.15855 22.6221C4.05266 22.7044 3.92234 22.7868 3.79202 22.9432ZM4.38661 22.3091C4.4029 22.2268 4.41104 22.1279 4.4029 21.9879C4.41919 22.1279 4.41104 22.2268 4.38661 22.3091ZM28.0805 20.1761C24.1546 30.9645 10.0148 32.2575 4.4029 21.9879L4.39476 21.9715C4.37847 21.7162 4.24815 21.5185 4.10968 21.3209C0.387409 12.4925 6.82197 2.67591 16.6449 3.08768C16.8078 3.08768 16.9707 3.07121 17.1254 3.07121C16.9625 3.07121 16.7996 3.08768 16.6449 3.08768C16.9951 3.26062 17.3698 3.19474 17.7363 3.21944H17.7444C18.0621 3.33474 18.396 3.39239 18.73 3.39239C25.0505 4.88299 29.3918 10.8866 28.6425 17.7055C28.4796 18.4632 28.3167 19.2291 28.1538 19.9867C28.1212 20.0526 28.1049 20.1185 28.0805 20.1761C28.1701 20.1844 28.2434 20.1926 28.3085 20.1761C28.2352 20.1926 28.1619 20.2008 28.0805 20.1761ZM28.4307 19.8385C28.4225 19.8467 28.4225 19.855 28.4144 19.8632C28.4225 19.855 28.4307 19.8467 28.4307 19.8385ZM29.2696 19.9044C29.3511 19.9455 29.457 19.9867 29.6362 20.0114C29.571 20.0114 29.4977 20.0197 29.4325 20.0197C29.3592 20.0032 29.3104 19.9538 29.2696 19.9044ZM30.4669 19.9867C30.5728 19.9703 30.695 19.9538 30.8253 19.9291C30.7031 19.962 30.581 19.9785 30.4669 19.9867ZM30.9882 19.8879C31.0045 19.8467 31.0127 19.8138 31.0208 19.7726C31.0208 19.8055 31.029 19.8385 31.029 19.8714C31.0127 19.8797 30.9964 19.8797 30.9882 19.8879ZM31.0045 19.5667C30.9801 19.435 30.9638 19.3197 31.1185 19.2126C31.0127 19.3032 30.9964 19.4267 31.0045 19.5667Z" fill="url(#paint0_linear_2_709)"/>
<path d="M22.436 11.4384C20.2287 10.1701 17.3046 10.7878 16.9951 13.6702C16.9706 13.9008 16.8729 14.1313 17.101 14.1149C19.0558 12.1796 21.5807 13.4313 21.3038 16.3055C21.1979 16.6596 21.092 17.0137 20.9943 17.3679C20.9373 17.4832 20.8884 17.5984 20.8314 17.722C20.0576 18.8749 18.9743 19.8549 17.8177 20.5879C18.5101 20.9173 22.1835 20.0773 22.9572 18.0349C22.9165 18.0514 22.8758 18.0596 22.8188 18.0761C22.8676 18.0596 22.9165 18.0514 22.9572 18.0349C23.2505 17.6726 23.4378 17.2526 23.6088 16.8161C23.7717 16.5608 23.8776 16.289 23.845 15.9761C24.3826 14.3043 23.9102 12.3854 22.436 11.4384ZM21.3934 17.9114C21.3934 17.9032 21.3852 17.9032 21.3852 17.8949C21.3852 17.9032 21.3852 17.9114 21.3934 17.9114ZM20.8395 17.8949C20.8395 18.0267 20.8314 18.1337 20.8803 18.2243C20.8151 18.1173 20.8232 18.002 20.8395 17.8949ZM20.8884 18.249C20.8965 18.2655 20.9128 18.282 20.921 18.2985C20.9128 18.2738 20.8965 18.2655 20.8884 18.249ZM21.4423 17.9608C21.5889 18.0926 21.8332 18.142 22.102 18.1502C21.8332 18.1502 21.5807 18.1008 21.4423 17.9608Z" fill="url(#paint1_linear_2_709)"/>
<path d="M18.225 21.6667C17.8992 21.6667 17.5734 21.6667 17.2395 21.675C17.1336 21.6667 17.0277 21.6667 16.9218 21.6585C16.539 21.5515 16.1643 21.4444 15.7815 21.3373H15.7734C15.6593 21.2303 15.5372 21.1397 15.3661 21.1726C14.8856 20.8514 13.2973 19.7891 15.0322 20.3573C15.6023 20.6126 18.054 20.3573 16.8322 19.3938C13.5498 17.3596 10.2755 16.5937 7.78309 20.9091C7.75051 21.3373 8.95598 20.7114 12.0348 22.3338C12.2384 22.3009 12.4258 22.3421 12.6212 22.3997C12.4176 22.3585 12.2221 22.3256 12.0348 22.3338C14.91 24.2774 19.2024 25.1503 21.8251 22.3338C21.7925 22.1856 21.7029 22.0868 21.597 22.0126C21.7111 22.0785 21.8007 22.1938 21.8251 22.3338C25.6533 17.9526 21.1328 21.4444 18.225 21.6667ZM20.978 21.8397C20.921 21.8726 20.9047 21.9303 20.9129 21.9879C20.8884 21.9138 20.8966 21.8562 20.978 21.8397ZM14.6331 22.5315C14.6656 22.5397 14.6982 22.5562 14.7308 22.5644C14.6168 22.5397 14.4864 22.515 14.3398 22.4821C14.4294 22.4821 14.5272 22.4903 14.6331 22.5315ZM13.6557 22.5562C13.8593 22.5479 14.0548 22.4985 14.2421 22.4821C14.0548 22.5479 13.8593 22.5644 13.6557 22.5562ZM15.3987 22.6962C15.529 22.6797 15.6186 22.6221 15.7082 22.4903C15.6105 22.6468 15.5371 22.6962 15.3987 22.6962ZM16.8811 21.9632C16.7752 21.8726 16.6693 21.782 16.539 21.7573C16.7345 21.8067 16.7996 21.8479 16.8811 21.9632ZM17.1091 22.1526C17.215 22.2021 17.3209 22.2185 17.4349 22.2268C17.3046 22.2515 17.1987 22.2185 17.1091 22.1526ZM18.2331 22.1197C18.3879 22.095 18.5345 22.0785 18.6893 22.095C18.8522 22.1279 18.9906 22.1773 19.121 22.2268C18.901 22.1691 18.6567 22.1032 18.2331 22.1197ZM19.9517 22.1609C20.1798 22.062 20.2613 22.0785 20.302 22.1526C20.245 22.1032 20.1472 22.0868 19.9517 22.1609ZM20.5056 22.4656C20.5545 22.482 20.6278 22.4903 20.7255 22.4821C20.6278 22.4985 20.5545 22.482 20.5056 22.4656ZM20.8558 22.4656C20.9699 22.4326 20.9943 22.3585 20.9862 22.2762C21.0106 22.3668 20.9943 22.4409 20.8558 22.4656ZM21.0269 21.8397C21.0513 21.8397 21.0758 21.8397 21.1002 21.8479C21.0839 21.8397 21.0513 21.8397 21.0269 21.8397Z" fill="url(#paint2_linear_2_709)"/>
<path d="M10.08 17.4255C10.699 17.3514 11.3262 17.129 12.0185 17.0549C12.2547 16.6926 11.8067 16.1161 11.9696 15.4737C11.9941 15.1937 12.0836 15.1361 11.9696 14.9714C12.6294 13.4231 14.519 12.3525 15.9444 13.8184C16.1887 14.1725 16.3842 14.1231 16.4168 13.769C17.0358 9.53599 8.85008 9.33834 9.27362 15.4078C9.33063 16.0831 9.57498 16.9561 10.08 17.4255ZM11.6194 16.5196C11.7416 16.3055 11.7823 15.8361 11.8556 15.4325C11.7904 15.8443 11.7497 16.3714 11.6194 16.5196ZM11.432 16.4373C11.318 16.3631 11.204 16.3137 11.0818 16.289C11.1144 16.289 11.147 16.289 11.1796 16.2808C11.2691 16.2643 11.3587 16.3549 11.432 16.4373ZM10.3651 16.1243C10.1288 16.042 9.8682 15.9102 9.55869 15.6549C9.78675 15.8361 10.0718 16.009 10.3651 16.1243Z" fill="url(#paint3_linear_2_709)"/>
<path d="M18.2169 10.1372C17.8503 10.2525 16.7345 10.4584 15.9363 10.3101C16.6286 10.4172 17.6467 10.3019 18.2169 10.1372C18.4856 9.65131 18.4612 9.19013 18.1517 8.89365C17.5897 7.27128 14.7797 7.84776 15.3091 10.0548C15.5697 11.3972 17.7444 11.5455 18.2169 10.1372Z" fill="url(#paint4_linear_2_709)"/>
<path d="M47.4375 14.0103C47.3994 13.6217 47.2358 13.3198 46.9468 13.1047C46.6578 12.8895 46.2655 12.7819 45.77 12.7819C45.4334 12.7819 45.1491 12.8301 44.9172 12.9264C44.6854 13.0196 44.5075 13.1496 44.3836 13.3166C44.263 13.4836 44.2026 13.6731 44.2026 13.885C44.1963 14.0617 44.2328 14.2158 44.3122 14.3475C44.3948 14.4791 44.5075 14.5931 44.6504 14.6895C44.7934 14.7826 44.9585 14.8645 45.1459 14.9352C45.3333 15.0026 45.5334 15.0604 45.7462 15.1086L46.6228 15.3205C47.0484 15.4169 47.4391 15.5453 47.7948 15.7059C48.1505 15.8665 48.4586 16.064 48.7191 16.2984C48.9795 16.5328 49.1812 16.809 49.3241 17.1269C49.4702 17.4448 49.5449 17.8093 49.548 18.2204C49.5449 18.8241 49.3924 19.3476 49.0907 19.7908C48.7921 20.2307 48.3602 20.5727 47.7948 20.8168C47.2326 21.0576 46.5545 21.1781 45.7605 21.1781C44.9728 21.1781 44.2868 21.056 43.7024 20.812C43.1211 20.5679 42.6669 20.2066 42.3398 19.7281C42.0158 19.2464 41.8459 18.6507 41.83 17.941H43.8262C43.8485 18.2718 43.9422 18.548 44.1073 18.7695C44.2757 18.9879 44.4996 19.1533 44.7791 19.2657C45.0617 19.3749 45.3809 19.4295 45.7367 19.4295C46.086 19.4295 46.3894 19.3781 46.6466 19.2753C46.9071 19.1726 47.1088 19.0297 47.2517 18.8466C47.3946 18.6636 47.4661 18.4532 47.4661 18.2156C47.4661 17.994 47.401 17.8077 47.2707 17.6568C47.1437 17.5059 46.9563 17.3774 46.7086 17.2714C46.464 17.1655 46.1639 17.0691 45.8081 16.9824L44.7457 16.7127C43.9231 16.5103 43.2736 16.194 42.7972 15.7637C42.3207 15.3334 42.0841 14.7537 42.0873 14.0247C42.0841 13.4274 42.2413 12.9056 42.559 12.4592C42.8797 12.0128 43.3196 11.6644 43.8786 11.4139C44.4376 11.1634 45.0729 11.0381 45.7843 11.0381C46.5085 11.0381 47.1405 11.1634 47.6805 11.4139C48.2236 11.6644 48.646 12.0128 48.9477 12.4592C49.2495 12.9056 49.4051 13.4226 49.4146 14.0103H47.4375Z" fill="white"/>
<path d="M54.2324 21.1829C53.4797 21.1829 52.8318 21.0287 52.2886 20.7205C51.7487 20.4089 51.3326 19.969 51.0404 19.4006C50.7482 18.8289 50.6021 18.153 50.6021 17.3726C50.6021 16.6115 50.7482 15.9435 51.0404 15.3687C51.3326 14.7939 51.7439 14.3459 52.2743 14.0247C52.8079 13.7036 53.4336 13.543 54.1514 13.543C54.6342 13.543 55.0836 13.6217 55.4997 13.7791C55.919 13.9332 56.2842 14.166 56.5955 14.4775C56.9099 14.789 57.1545 15.1808 57.3292 15.6529C57.5039 16.1218 57.5912 16.6709 57.5912 17.3003V17.8639H51.412V16.5922H55.6808C55.6808 16.2968 55.6172 16.035 55.4902 15.807C55.3631 15.579 55.1869 15.4008 54.9614 15.2723C54.739 15.1407 54.4802 15.0748 54.1848 15.0748C53.8767 15.0748 53.6036 15.1471 53.3653 15.2916C53.1303 15.4329 52.9461 15.624 52.8127 15.8648C52.6793 16.1025 52.611 16.3674 52.6078 16.6597V17.8687C52.6078 18.2348 52.6745 18.5512 52.8079 18.8177C52.9445 19.0843 53.1367 19.2898 53.3844 19.4343C53.6321 19.5788 53.9259 19.6511 54.2658 19.6511C54.4913 19.6511 54.6977 19.6189 54.8851 19.5547C55.0725 19.4905 55.2329 19.3942 55.3663 19.2657C55.4997 19.1372 55.6013 18.9799 55.6712 18.7936L57.5483 18.9189C57.453 19.3749 57.2577 19.7731 56.9623 20.1135C56.6701 20.4507 56.2922 20.714 55.8284 20.9035C55.3679 21.0898 54.8359 21.1829 54.2324 21.1829Z" fill="white"/>
<path d="M60.9452 16.7608V21.0384H58.9156V13.6394H60.8499V14.9448H60.9357C61.0976 14.5145 61.3692 14.1741 61.7503 13.9236C62.1315 13.6699 62.5936 13.543 63.1367 13.543C63.6449 13.543 64.088 13.6554 64.4659 13.8802C64.8439 14.105 65.1377 14.4261 65.3473 14.8436C65.5569 15.2579 65.6618 15.7524 65.6618 16.3273V21.0384H63.6322V16.6934C63.6354 16.2406 63.521 15.8873 63.2892 15.6336C63.0573 15.3767 62.7381 15.2483 62.3316 15.2483C62.0584 15.2483 61.817 15.3077 61.6074 15.4265C61.401 15.5453 61.239 15.7187 61.1215 15.9467C61.0071 16.1715 60.9484 16.4429 60.9452 16.7608Z" fill="white"/>
<path d="M69.9579 21.1588C69.402 21.1588 68.8986 21.0143 68.4476 20.7253C67.9998 20.433 67.6441 20.0043 67.3804 19.4391C67.12 18.8707 66.9898 18.1738 66.9898 17.3485C66.9898 16.5007 67.1248 15.7958 67.3947 15.2338C67.6647 14.6686 68.0236 14.2463 68.4714 13.9669C68.9224 13.6843 69.4163 13.543 69.9531 13.543C70.3628 13.543 70.7043 13.6137 70.9774 13.755C71.2537 13.8931 71.4761 14.0665 71.6444 14.2752C71.8159 14.4807 71.9461 14.6831 72.0351 14.8822H72.097V11.173H74.1218V21.0384H72.1208V19.8534H72.0351C71.9398 20.0589 71.8048 20.2628 71.6301 20.4651C71.4586 20.6643 71.2347 20.8296 70.9584 20.9613C70.6852 21.093 70.3517 21.1588 69.9579 21.1588ZM70.601 19.5258C70.9282 19.5258 71.2045 19.4359 71.43 19.2561C71.6587 19.073 71.8334 18.8177 71.9541 18.4901C72.0779 18.1626 72.1399 17.7788 72.1399 17.3389C72.1399 16.8989 72.0795 16.5168 71.9588 16.1924C71.8381 15.8681 71.6634 15.6176 71.4348 15.4409C71.2061 15.2643 70.9282 15.176 70.601 15.176C70.2675 15.176 69.9865 15.2675 69.7578 15.4506C69.5291 15.6336 69.356 15.8873 69.2385 16.2117C69.121 16.536 69.0622 16.9118 69.0622 17.3389C69.0622 17.7692 69.121 18.1497 69.2385 18.4805C69.3592 18.8081 69.5323 19.065 69.7578 19.2512C69.9865 19.4343 70.2675 19.5258 70.601 19.5258Z" fill="white"/>
<path d="M75.8286 11.173H78.3726L81.0596 17.8013H81.174L83.861 11.173H86.4051V21.0384H84.4041V14.6172H84.3231L81.7981 20.9902H80.4355L77.9105 14.5931H77.8295V21.0384H75.8286V11.173Z" fill="white"/>
<path d="M91.4015 21.1829C90.6488 21.1829 90.0009 21.0287 89.4577 20.7205C88.9178 20.4089 88.5017 19.969 88.2095 19.4006C87.9173 18.8289 87.7712 18.153 87.7712 17.3726C87.7712 16.6115 87.9173 15.9435 88.2095 15.3687C88.5017 14.7939 88.913 14.3459 89.4434 14.0247C89.977 13.7036 90.6027 13.543 91.3205 13.543C91.8033 13.543 92.2527 13.6217 92.6688 13.7791C93.0881 13.9332 93.4533 14.166 93.7646 14.4775C94.079 14.789 94.3236 15.1808 94.4983 15.6529C94.6729 16.1218 94.7603 16.6709 94.7603 17.3003V17.8639H88.5811V16.5922H92.8498C92.8498 16.2968 92.7863 16.035 92.6593 15.807C92.5322 15.579 92.3559 15.4008 92.1304 15.2723C91.9081 15.1407 91.6493 15.0748 91.3539 15.0748C91.0458 15.0748 90.7727 15.1471 90.5344 15.2916C90.2994 15.4329 90.1152 15.624 89.9818 15.8648C89.8484 16.1025 89.7801 16.3674 89.7769 16.6597V17.8687C89.7769 18.2348 89.8436 18.5512 89.977 18.8177C90.1136 19.0843 90.3058 19.2898 90.5535 19.4343C90.8012 19.5788 91.095 19.6511 91.4349 19.6511C91.6604 19.6511 91.8668 19.6189 92.0542 19.5547C92.2416 19.4905 92.402 19.3942 92.5354 19.2657C92.6688 19.1372 92.7704 18.9799 92.8403 18.7936L94.7174 18.9189C94.6221 19.3749 94.4268 19.7731 94.1314 20.1135C93.8392 20.4507 93.4612 20.714 92.9975 20.9035C92.537 21.0898 92.005 21.1829 91.4015 21.1829Z" fill="white"/>
<path d="M96.1228 21.0384V11.173H98.1857V15.2434H102.373V11.173H104.432V21.0384H102.373V16.9631H98.1857V21.0384H96.1228Z" fill="white"/>
<path d="M110.787 17.888V13.6394H112.817V21.0384H110.868V19.6944H110.792C110.627 20.128 110.352 20.4764 109.968 20.7397C109.586 21.0031 109.121 21.1347 108.572 21.1347C108.083 21.1347 107.652 21.0223 107.281 20.7975C106.909 20.5727 106.618 20.2532 106.409 19.8389C106.202 19.4247 106.097 18.9285 106.094 18.3505V13.6394H108.124V17.9844C108.127 18.4211 108.243 18.7663 108.472 19.02C108.7 19.2737 109.007 19.4006 109.391 19.4006C109.636 19.4006 109.864 19.3444 110.077 19.232C110.29 19.1164 110.461 18.9462 110.592 18.7214C110.725 18.4966 110.79 18.2188 110.787 17.888Z" fill="white"/>
<path d="M117.737 23.9672C117.079 23.9672 116.516 23.8756 116.046 23.6926C115.579 23.5127 115.207 23.2671 114.931 22.9556C114.654 22.6441 114.475 22.294 114.392 21.9055L116.269 21.6501C116.327 21.7979 116.417 21.936 116.541 22.0644C116.665 22.1929 116.828 22.2956 117.032 22.3727C117.238 22.453 117.489 22.4931 117.784 22.4931C118.226 22.4931 118.59 22.3839 118.875 22.1656C119.164 21.9504 119.309 21.5891 119.309 21.0817V19.7281H119.223C119.134 19.9337 119.001 20.128 118.823 20.311C118.645 20.4941 118.417 20.6434 118.137 20.759C117.858 20.8746 117.524 20.9324 117.137 20.9324C116.587 20.9324 116.087 20.8039 115.636 20.547C115.188 20.2869 114.831 19.8903 114.564 19.3572C114.3 18.8209 114.168 18.1433 114.168 17.3244C114.168 16.4862 114.303 15.7862 114.573 15.2242C114.843 14.6622 115.202 14.2415 115.65 13.9621C116.101 13.6827 116.595 13.543 117.132 13.543C117.541 13.543 117.885 13.6137 118.161 13.755C118.437 13.8931 118.659 14.0665 118.828 14.2752C118.999 14.4807 119.131 14.6831 119.223 14.8822H119.299V13.6394H121.315V21.1106C121.315 21.7401 121.162 22.2667 120.857 22.6906C120.552 23.1145 120.13 23.4325 119.59 23.6444C119.053 23.8596 118.436 23.9672 117.737 23.9672ZM117.78 19.3909C118.107 19.3909 118.383 19.3091 118.609 19.1453C118.837 18.9783 119.012 18.7406 119.133 18.4323C119.257 18.1208 119.319 17.7483 119.319 17.3148C119.319 16.8812 119.258 16.5055 119.138 16.1876C119.017 15.8665 118.842 15.6176 118.613 15.4409C118.385 15.2643 118.107 15.176 117.78 15.176C117.446 15.176 117.165 15.2675 116.936 15.4506C116.708 15.6304 116.535 15.8809 116.417 16.202C116.3 16.5232 116.241 16.8941 116.241 17.3148C116.241 17.7419 116.3 18.1112 116.417 18.4227C116.538 18.731 116.711 18.9702 116.936 19.1405C117.165 19.3074 117.446 19.3909 117.78 19.3909Z" fill="white"/>
<path d="M129.018 15.7492L127.16 15.8648C127.129 15.7043 127.06 15.5598 126.956 15.4313C126.851 15.2996 126.713 15.1953 126.541 15.1182C126.373 15.0379 126.171 14.9978 125.936 14.9978C125.622 14.9978 125.356 15.0652 125.14 15.2001C124.924 15.3318 124.816 15.5084 124.816 15.73C124.816 15.9066 124.886 16.0559 125.026 16.178C125.166 16.3 125.406 16.3979 125.745 16.4718L127.07 16.7416C127.781 16.8893 128.312 17.1269 128.661 17.4545C129.011 17.782 129.185 18.2124 129.185 18.7455C129.185 19.2304 129.044 19.6559 128.761 20.022C128.482 20.3881 128.097 20.6739 127.608 20.8794C127.122 21.0817 126.562 21.1829 125.926 21.1829C124.958 21.1829 124.186 20.979 123.611 20.5711C123.039 20.1601 122.704 19.6013 122.606 18.8948L124.602 18.7888C124.662 19.0875 124.808 19.3155 125.04 19.4728C125.272 19.627 125.569 19.7041 125.931 19.7041C126.287 19.7041 126.573 19.635 126.789 19.4969C127.008 19.3556 127.119 19.1742 127.122 18.9526C127.119 18.7663 127.041 18.6138 126.889 18.495C126.736 18.3729 126.501 18.2798 126.184 18.2156L124.916 17.9603C124.202 17.8158 123.67 17.5653 123.32 17.2088C122.974 16.8523 122.801 16.3979 122.801 15.8456C122.801 15.3703 122.928 14.9608 123.182 14.6172C123.44 14.2736 123.8 14.0087 124.264 13.8224C124.731 13.6361 125.277 13.543 125.903 13.543C126.827 13.543 127.554 13.7405 128.085 14.1355C128.618 14.5305 128.93 15.0684 129.018 15.7492Z" fill="white"/>
<defs>
<linearGradient id="paint0_linear_2_709" x1="64.5926" y1="0" x2="64.5926" y2="32" gradientUnits="userSpaceOnUse">
<stop stop-color="#2ED7B4"/>
<stop offset="1" stop-color="#22816F"/>
</linearGradient>
<linearGradient id="paint1_linear_2_709" x1="64.5926" y1="0" x2="64.5926" y2="32" gradientUnits="userSpaceOnUse">
<stop stop-color="#2ED7B4"/>
<stop offset="1" stop-color="#22816F"/>
</linearGradient>
<linearGradient id="paint2_linear_2_709" x1="64.5926" y1="0" x2="64.5926" y2="32" gradientUnits="userSpaceOnUse">
<stop stop-color="#2ED7B4"/>
<stop offset="1" stop-color="#22816F"/>
</linearGradient>
<linearGradient id="paint3_linear_2_709" x1="64.5926" y1="0" x2="64.5926" y2="32" gradientUnits="userSpaceOnUse">
<stop stop-color="#2ED7B4"/>
<stop offset="1" stop-color="#22816F"/>
</linearGradient>
<linearGradient id="paint4_linear_2_709" x1="64.5926" y1="0" x2="64.5926" y2="32" gradientUnits="userSpaceOnUse">
<stop stop-color="#2ED7B4"/>
<stop offset="1" stop-color="#22816F"/>
</linearGradient>
</defs>
</svg>
