<svg xmlns="http://www.w3.org/2000/svg" width="17" height="16" viewBox="0 0 17 16" fill="none">
                        <path d="M7.23807 11.1998C7.07061 11.1988 6.90524 11.1625 6.7528 11.0931C6.58793 11.0205 6.44746 10.9019 6.34817 10.7515C6.24888 10.6012 6.19497 10.4254 6.19287 10.2452L6.19287 5.755C6.19497 5.57483 6.24888 5.39907 6.34817 5.24871C6.44746 5.09836 6.58793 4.97976 6.7528 4.90708C6.9425 4.81747 7.15356 4.78296 7.36193 4.80748C7.57029 4.83199 7.76758 4.91455 7.93131 5.04574L10.651 7.29085C10.7576 7.37576 10.8437 7.48362 10.9029 7.60642C10.9621 7.72922 10.9929 7.86379 10.9929 8.00011C10.9929 8.13644 10.9621 8.27101 10.9029 8.39381C10.8437 8.5166 10.7576 8.62447 10.651 8.70938L7.93131 10.9545C7.73527 11.1135 7.49047 11.2001 7.23807 11.1998Z" fill="white" />
                    </svg>