<svg xmlns="http://www.w3.org/2000/svg" width="26" height="10" viewBox="0 0 26 10" fill="none">
  <path fill-rule="evenodd" clip-rule="evenodd" d="M0 7.05685C0.0173114 6.96378 0.0331655 6.87364 0.0487072 6.78527C0.0727286 6.64869 0.0960039 6.51635 0.12276 6.38401C0.236074 5.78543 0.350174 5.18764 0.464274 4.58984L0.464285 4.58979C0.578389 3.99197 0.692494 3.39415 0.805812 2.79555C0.82155 2.71973 0.843584 2.66919 0.919129 2.65656C1.50775 2.56811 2.09952 2.50493 2.68814 2.6534C3.20121 2.77975 3.56005 3.14302 3.61986 3.56947C3.74262 4.4192 3.24843 5.09836 2.51501 5.34159C2.12785 5.46794 1.73438 5.49953 1.33463 5.46162C1.24019 5.45215 1.21187 5.47742 1.19613 5.56903C1.11114 6.03338 1.023 6.49457 0.93172 6.95576C0.925424 6.99367 0.8908 7.05369 0.868766 7.05369C0.654857 7.05841 0.444459 7.05784 0.225774 7.05725H0.225724L0.225408 7.05725C0.151375 7.05705 0.0763915 7.05685 0 7.05685ZM1.53246 4.71302L1.53248 4.71302C1.65561 4.71637 1.77187 4.71954 1.88523 4.70666C2.21259 4.67191 2.47385 4.52344 2.6218 4.21072C2.78862 3.85692 2.66901 3.48102 2.35424 3.37046C2.13075 3.29149 1.90097 3.30728 1.67119 3.33887C1.64286 3.34203 1.60509 3.38625 1.59879 3.41468C1.55476 3.64625 1.51072 3.8788 1.46503 4.12009L1.35327 4.70982C1.4148 4.70982 1.47439 4.71144 1.53246 4.71302ZM5.58068 6.45013C5.53088 6.50211 5.48422 6.55441 5.43863 6.60552L5.43862 6.60552L5.43862 6.60553L5.43862 6.60553L5.43861 6.60553L5.43861 6.60553C5.34013 6.71593 5.24658 6.8208 5.13685 6.905C4.80635 7.16087 4.42862 7.21773 4.04775 7.04084C3.67003 6.8671 3.51579 6.5291 3.50005 6.13108C3.46542 5.29399 3.75816 4.6022 4.4601 4.12205C4.90078 3.8188 5.40756 3.72719 5.93322 3.75562C6.10711 3.76589 6.27966 3.79616 6.45261 3.82651L6.45261 3.82651L6.45262 3.82651L6.45262 3.82651L6.45263 3.82651L6.45263 3.82652C6.5458 3.84286 6.63907 3.85923 6.73274 3.8725C6.83976 3.88829 6.8555 3.94831 6.83661 4.03992C6.81145 4.17149 6.78601 4.30293 6.76058 4.43428L6.76056 4.43442L6.76053 4.43457L6.76052 4.43463L6.76039 4.43526L6.76028 4.43587L6.76027 4.43591C6.66493 4.92842 6.56982 5.41979 6.49037 5.91312C6.4448 6.19554 6.42662 6.48483 6.40863 6.77125L6.39908 6.9208C6.39279 7.02188 6.36761 7.06295 6.26373 7.05979C6.06857 7.05347 5.87342 7.05347 5.67826 7.05979C5.57753 7.06295 5.54291 7.02504 5.55235 6.92712C5.56134 6.81892 5.56711 6.70751 5.57312 6.59174V6.59173V6.59173V6.59172L5.57312 6.59167L5.57312 6.59163L5.57313 6.5915L5.57314 6.5914L5.57314 6.5913L5.57315 6.59125L5.57315 6.59123C5.57555 6.54492 5.57799 6.49791 5.58068 6.45013ZM5.80124 4.49802C5.49592 4.41273 5.24095 4.47275 5.02691 4.6528C4.624 4.99396 4.44144 5.4362 4.47606 5.96373C4.48551 6.12483 4.54846 6.27962 4.71844 6.34911C4.88841 6.41861 5.04265 6.36806 5.17485 6.25434C5.25354 6.18485 5.32909 6.10588 5.38575 6.01743C5.60777 5.67736 5.66842 5.29375 5.73002 4.9041C5.75139 4.76895 5.77287 4.63306 5.80124 4.49802ZM10.2614 6.26711C10.4346 6.82306 10.9099 7.13263 11.744 7.13263C12.3169 7.11684 12.8866 6.79148 13.2423 6.1218C13.4312 5.76169 13.5004 5.37631 13.4752 4.97197C13.4532 4.58343 13.299 4.25491 12.9842 4.02116C12.6537 3.77477 12.276 3.72422 11.8731 3.76845C10.5259 3.92007 9.975 5.35104 10.2614 6.26711ZM11.1579 5.80324C11.1583 5.7871 11.1586 5.77108 11.1586 5.7554C11.1681 5.39213 11.2562 5.05413 11.4734 4.75404C11.571 4.62137 11.6937 4.52028 11.8574 4.48238C12.1911 4.40657 12.4649 4.59926 12.4964 4.96252C12.5342 5.40792 12.4271 5.81858 12.147 6.17553C12.04 6.3082 11.9046 6.39981 11.7315 6.4156C11.4199 6.44403 11.1838 6.23239 11.1586 5.90071C11.1565 5.869 11.1572 5.83588 11.1579 5.80324ZM14.2245 3.83464H15.024C15.0115 4.00522 14.9989 4.16948 14.9831 4.3369C15.0122 4.30977 15.0402 4.28296 15.0678 4.25667L15.0679 4.25656L15.068 4.25645L15.0681 4.25635L15.0681 4.25634L15.0681 4.25633L15.0681 4.25632C15.127 4.20009 15.1834 4.14626 15.2412 4.09682C15.5529 3.82516 15.9086 3.70512 16.3209 3.77146C16.6609 3.82832 16.8969 4.07787 16.9347 4.4285C16.9757 4.79336 16.9076 5.14725 16.8395 5.50039L16.8245 5.57833C16.797 5.72128 16.7698 5.86423 16.7426 6.00709L16.7423 6.00895C16.6825 6.3232 16.6228 6.63698 16.5601 6.94927C16.5507 6.99034 16.5035 7.05036 16.472 7.05352C16.2013 7.05983 15.9306 7.05667 15.6599 7.05352H15.6599C15.6508 7.05352 15.6417 7.04859 15.6279 7.04111C15.6226 7.03821 15.6166 7.03493 15.6095 7.0314C15.6599 6.76922 15.7102 6.50387 15.7575 6.23853C15.8299 5.83104 15.8991 5.4267 15.9621 5.01921C15.9747 4.94971 15.9684 4.87706 15.9589 4.80757C15.9337 4.56433 15.7543 4.45377 15.5214 4.52643C15.2947 4.59908 15.1594 4.77598 15.0492 4.97183C14.8855 5.25928 14.8289 5.57833 14.7722 5.89737L14.73 6.13414C14.6818 6.40486 14.6339 6.67454 14.5802 6.94611C14.5708 6.98718 14.5236 7.05036 14.4921 7.05352C14.2713 7.06107 14.0486 7.0606 13.8111 7.06009L13.6265 7.05983C13.8342 5.97319 14.0294 4.90865 14.2245 3.83464ZM18.7635 6.39676C18.4298 6.35569 18.2064 6.12194 18.2284 5.79342C18.298 5.79342 18.3672 5.79448 18.4361 5.79554C18.5729 5.79764 18.7082 5.79972 18.8422 5.79342C19.1664 5.77446 19.4843 5.72076 19.7802 5.5723C20.1579 5.38276 20.3342 5.07004 20.3059 4.66254C20.2775 4.24873 20.0541 3.94864 19.6543 3.8286C19.0562 3.64855 18.5054 3.7749 18.0364 4.17608C17.4667 4.66254 17.2526 5.30695 17.3344 6.04297C17.3911 6.56418 17.6744 6.93692 18.1906 7.0696C18.7446 7.21174 19.2892 7.13593 19.8148 6.92113C19.8526 6.90533 19.8967 6.84532 19.8935 6.80741C19.886 6.65325 19.8704 6.4991 19.8547 6.34494L19.8432 6.22934C19.8328 6.22934 19.8251 6.22881 19.8192 6.2284C19.8108 6.22781 19.806 6.22748 19.8022 6.22934L19.8022 6.22936C19.7676 6.24199 19.733 6.25462 19.7015 6.26725C19.3993 6.38412 19.0877 6.43466 18.7635 6.39676ZM19.2513 4.99746C19.0593 5.09855 18.562 5.15856 18.3196 5.10802C18.3699 4.68789 18.8138 4.35937 19.1883 4.45098C19.3143 4.48257 19.4055 4.5489 19.4276 4.68473C19.4496 4.81741 19.3835 4.92797 19.2513 4.99746ZM21.3729 5.80602C21.3445 6.11559 21.5649 6.3525 21.9017 6.39673C22.2164 6.43463 22.5186 6.38725 22.8145 6.27985C22.8418 6.26959 22.8681 6.25932 22.8971 6.24806C22.9216 6.23852 22.9479 6.22826 22.9782 6.21667C22.9843 6.28349 22.9912 6.34897 22.9979 6.41355L22.9979 6.41384V6.41386C23.0118 6.54761 23.0253 6.6775 23.0317 6.80738C23.0349 6.84529 22.9908 6.9053 22.9562 6.9211C22.4211 7.14222 21.8702 7.21803 21.3068 7.06325C20.8 6.92426 20.5356 6.55467 20.4726 6.04925C20.3939 5.40169 20.5608 4.8173 21.0109 4.33715C21.4956 3.82226 22.0905 3.63904 22.7767 3.82858C23.1954 3.94545 23.4189 4.2487 23.4441 4.67515C23.4692 5.09212 23.2804 5.40485 22.8869 5.58806C22.4903 5.77127 22.0685 5.7997 21.6404 5.80918C21.5554 5.80602 21.4673 5.80602 21.3729 5.80602ZM21.4641 5.13313C21.5214 5.12954 21.5776 5.12671 21.6331 5.12393C21.7727 5.11691 21.9072 5.11015 22.0401 5.09207C22.1661 5.07627 22.292 5.03836 22.4053 4.98466C22.528 4.93096 22.5878 4.81724 22.569 4.67826C22.5501 4.54558 22.4619 4.48241 22.3392 4.45082C21.9677 4.34973 21.505 4.69089 21.4641 5.13313ZM23.6172 6.39674C23.5763 6.61154 23.5385 6.82319 23.4976 7.05694C23.5606 7.05694 23.6227 7.05707 23.6842 7.0572C23.9263 7.0577 24.1574 7.05818 24.3884 7.05062C24.4104 7.05062 24.445 6.99061 24.4513 6.9527C24.4834 6.79494 24.5132 6.63641 24.5429 6.47792C24.5978 6.18575 24.6526 5.89373 24.722 5.60703C24.8763 4.96894 25.1375 4.74782 25.7576 4.66569C25.7828 4.66253 25.8237 4.6341 25.83 4.61199C25.8695 4.43042 25.9049 4.24747 25.9416 4.05768C25.9605 3.9602 25.9797 3.86092 26 3.75909C25.4019 3.69592 25.0683 4.04339 24.7787 4.46984L24.7833 4.40812C24.7975 4.21953 24.812 4.02762 24.829 3.82543C24.7636 3.82543 24.6994 3.82523 24.6361 3.82503C24.4496 3.82444 24.271 3.82387 24.0925 3.82859C24.0673 3.83175 24.0201 3.88861 24.0169 3.92335C23.9498 4.73525 23.7908 5.52931 23.632 6.32284L23.6172 6.39674Z" fill="black"/>
  <path fill-rule="evenodd" clip-rule="evenodd" d="M15.283 0.0239876C15.2512 0.0155475 15.2193 0.00710743 15.1874 0C15.0898 0 14.9923 0 14.8884 0.00315886C14.8529 0.0102799 14.8174 0.018043 14.7817 0.0258693C14.7381 0.0354015 14.6941 0.0450273 14.6492 0.0537006C14.1676 0.145307 13.7143 0.312727 13.2768 0.533847C12.3293 1.01399 11.4794 1.63629 10.7177 2.3723C10.2109 2.85877 9.71986 3.36734 9.24456 3.88856C8.41042 4.80462 7.69589 5.8123 7.12615 6.9179C6.83342 7.48965 6.56901 8.07404 6.4494 8.70897C6.42736 8.82585 6.46514 8.96168 6.50291 9.07856C6.51865 9.12594 6.60678 9.16069 6.66659 9.17964C6.68233 9.18596 6.72954 9.10699 6.75158 9.06277C6.7594 9.04564 6.76741 9.02808 6.77559 9.01014C6.9123 8.71051 7.09715 8.30535 7.25752 8.03711C7.59748 7.46851 7.86586 7.02846 8.24674 6.4883C8.85739 5.61961 9.5709 4.76729 10.3201 4.01549C11.0283 3.30474 11.7375 2.66924 12.6283 2.18909C13.0375 1.97113 13.4562 1.75633 13.8843 1.57943C14.624 1.27302 15.3952 1.06454 16.1884 0.947658C16.2734 0.935022 16.3867 0.868686 16.415 0.799191C16.4402 0.736014 16.3804 0.615977 16.3206 0.555959C16.0782 0.306409 15.7949 0.116878 15.4424 0.0600183C15.3893 0.0521212 15.3361 0.0380544 15.283 0.0239876ZM8.07671 4.33413C8.2278 3.92348 8.30335 3.49703 8.31279 3.05479C8.30859 3.00741 8.30509 2.96003 8.3016 2.91265C8.2946 2.81788 8.28761 2.72311 8.27502 2.62835C8.19003 1.89549 7.87526 1.2732 7.37477 0.73935C7.31497 0.679331 7.23313 0.631949 7.15129 0.603519C7.06945 0.57193 7.01594 0.619313 7.02223 0.714079C7.02238 0.71608 7.02254 0.718083 7.02269 0.720087C7.02884 0.800363 7.0352 0.883499 7.05056 0.963629C7.07268 1.08986 7.09464 1.21624 7.11662 1.34271C7.19474 1.79224 7.27305 2.24284 7.35903 2.69152C7.44402 3.14324 7.53845 3.5918 7.63918 4.0372C7.6738 4.17935 7.73046 4.3215 7.79971 4.45417C7.85322 4.55525 7.92877 4.54577 7.99802 4.45417C8.0295 4.41626 8.06097 4.37836 8.07671 4.33413Z" fill="#FC461E"/>
</svg>