<svg xmlns="http://www.w3.org/2000/svg" width="28" height="9" viewBox="0 0 28 9" fill="none">
  <path fill-rule="evenodd" clip-rule="evenodd" d="M17.1012 7.84739C17.2926 7.34693 17.7186 6.22539 17.5161 5.95362H17.5175C17.3159 5.68126 16.1838 5.82419 15.6746 5.88848L15.6735 5.88861C15.5186 5.90819 15.4948 5.76643 15.634 5.66384C16.5382 4.99577 18.0195 5.18687 18.1915 5.41243C18.3636 5.63799 18.1446 7.19968 17.2978 7.94529C17.1675 8.05963 17.0431 7.99854 17.1012 7.84739ZM11.0176 8.61955C12.9867 8.61955 15.2798 7.96558 16.8594 6.73988V6.74223C17.1209 6.53547 16.8967 6.23159 16.6301 6.35063C14.9058 7.11545 13.055 7.51468 11.1836 7.52543C8.58742 7.52543 6.0761 6.77669 4.0444 5.53376C3.8664 5.42489 3.73383 5.61678 3.88279 5.75697C5.83874 7.6128 8.38319 8.63367 11.0176 8.61955Z" fill="#FF9900"/>
  <path fill-rule="evenodd" clip-rule="evenodd" d="M23.8932 4.94984H24.7318H24.7325C24.8202 4.95157 24.8931 4.8791 24.8963 4.78689V2.34254C24.8963 2.03553 24.912 1.75827 25.0297 1.48102C25.1104 1.27012 25.3008 1.12812 25.5167 1.11762C26.0531 1.11762 26.048 1.73576 26.044 2.22138C26.0436 2.26234 26.0433 2.30235 26.0433 2.34097V4.80726C26.0536 4.88638 26.1163 4.94638 26.1922 4.94984H27.0383C27.1185 4.95158 27.1876 4.89064 27.1999 4.80726V1.94937C27.1999 1.51 27.1999 0.898326 26.9802 0.534923C26.7426 0.143325 26.3747 0 25.9978 0C25.4169 0 25.087 0.296048 24.8517 0.917122H24.8353V0.222428C24.8183 0.149804 24.7574 0.0979485 24.6863 0.0955499H23.9058C23.8233 0.0934163 23.7531 0.15811 23.7442 0.244357V4.78689C23.7453 4.87399 23.8104 4.94526 23.8932 4.94984ZM23.104 2.56734C23.104 1.13409 22.4285 0.00628497 21.1795 0.00628497C19.9626 0.00628497 19.2871 1.11529 19.2871 2.51956C19.2871 3.92383 19.9544 5.05163 21.1795 5.05163C22.3592 5.05163 23.104 3.95281 23.104 2.56734ZM20.5278 2.37619C20.5278 1.82168 20.5673 0.93354 21.1877 0.93354C21.4543 0.93354 21.6427 1.05963 21.7373 1.37291C21.8475 1.73553 21.8632 2.19449 21.8632 2.57669C21.8632 3.15938 21.8386 4.11488 21.1795 4.11488C20.5276 4.11488 20.5278 2.9564 20.5278 2.39456L20.5278 2.37619ZM4.7908 4.95924H5.63163H5.63237C5.67458 4.96024 5.71543 4.94356 5.74591 4.91284C5.77638 4.88212 5.79395 4.83989 5.79473 4.7955V2.38874L5.79471 2.35107C5.79437 1.82776 5.79391 1.13563 6.37564 1.13563C6.91344 1.13563 6.90512 1.74375 6.8984 2.23483V2.23484V2.23485V2.23486V2.23486C6.89768 2.28782 6.89697 2.33942 6.89697 2.38874V4.79629C6.8984 4.88323 6.96337 4.95428 7.04592 4.95924H7.88899C7.93106 4.96003 7.97173 4.94325 8.00204 4.91256C8.03235 4.88186 8.04982 4.83975 8.0506 4.7955V2.38874L8.05052 2.33152V2.3315C8.05002 2.0765 8.04933 1.7324 8.12955 1.51861C8.21133 1.30007 8.40903 1.15377 8.63226 1.14659C8.87579 1.14659 9.06422 1.23275 9.12678 1.53819C9.15871 1.6852 9.15457 2.02599 9.15183 2.25198L9.15182 2.25212C9.15118 2.3054 9.15061 2.35229 9.15061 2.38874V4.79629C9.15167 4.88338 9.21684 4.95466 9.29956 4.95924H10.1404C10.1826 4.96024 10.2235 4.94356 10.2539 4.91284C10.2844 4.88212 10.302 4.83989 10.3027 4.7955V1.92979C10.3027 1.85998 10.3039 1.78863 10.3051 1.7165V1.71646V1.71642V1.71637V1.71633C10.3119 1.28844 10.3193 0.832968 10.0905 0.505941C9.81317 0.134986 9.36718 -0.0498671 8.92376 0.0223591C8.48034 0.0945854 8.10842 0.412664 7.9508 0.854463C7.71472 0.28038 7.37734 0.0133105 6.85899 0.0133105C6.34064 0.0133105 5.9556 0.28038 5.75153 0.854463H5.73589V0.261584C5.73146 0.17708 5.6673 0.109606 5.58694 0.104944H4.80271C4.71611 0.104045 4.64467 0.176038 4.64185 0.267066V4.8096C4.64948 4.89134 4.7128 4.95494 4.7908 4.95924ZM3.32758 4.99375C3.27219 5.04426 3.1926 5.05273 3.12873 5.01489C2.89043 4.8064 2.81859 4.6937 2.70826 4.52062C2.68928 4.49085 2.66917 4.45929 2.64687 4.42515C2.18437 4.92013 1.85743 5.06815 1.25938 5.06815C0.551121 5.06815 0 4.60842 0 3.68894C0 2.97075 0.372379 2.48282 0.893709 2.24316C1.27867 2.06551 1.7923 2.01038 2.23636 1.96271C2.31893 1.95384 2.39909 1.94524 2.47557 1.93615V1.8218C2.47557 1.79998 2.47574 1.77774 2.47591 1.7552C2.47738 1.56023 2.47902 1.34316 2.37354 1.17958C2.27077 1.01668 2.07564 0.950106 1.90137 0.950106C1.58038 0.950106 1.29439 1.12319 1.22438 1.48111C1.21551 1.56461 1.15442 1.63142 1.07543 1.64402L0.266623 1.55082C0.226264 1.54474 0.190038 1.52153 0.166394 1.4866C0.142749 1.45167 0.133753 1.40808 0.141504 1.36598C0.328438 0.325899 1.22215 0.0118373 2.02276 0.0118373C2.43238 0.0118373 2.96711 0.126184 3.28885 0.451994C3.66654 0.823856 3.6642 1.31067 3.66165 1.84266C3.66144 1.88658 3.66123 1.93081 3.66123 1.97531V3.35295C3.66123 3.72398 3.79213 3.90854 3.93002 4.10294L3.93002 4.10295L3.93003 4.10295L3.93003 4.10296L3.93004 4.10297L3.93004 4.10298C3.94641 4.12606 3.96288 4.14927 3.97924 4.17296C4.03286 4.25128 4.04478 4.34918 3.97924 4.40792C3.8072 4.55907 3.50185 4.83789 3.33428 4.99532L3.32758 4.99375ZM2.47946 2.83674L2.47949 2.87963C2.47979 3.20539 2.48004 3.48164 2.32232 3.77658C2.18826 4.02563 1.97601 4.17914 1.73918 4.17914C1.4167 4.17914 1.22827 3.92069 1.22827 3.53692C1.22827 2.78349 1.871 2.64643 2.47946 2.64643V2.83674ZM14.957 4.09957L14.957 4.09958L14.957 4.0996L14.957 4.09961L14.957 4.09962C14.9734 4.12273 14.9899 4.14598 15.0063 4.16969C15.0629 4.25115 15.0748 4.3467 15.0026 4.40074C14.8305 4.55189 14.5252 4.83149 14.3576 4.98813C14.3019 5.03795 14.2226 5.04607 14.1588 5.0085C13.9194 4.79911 13.8486 4.68806 13.7366 4.51273C13.7179 4.48345 13.6981 4.45237 13.6762 4.41875C13.2144 4.91373 12.8852 5.06175 12.2894 5.06175C11.5812 5.06175 11.03 4.60202 11.03 3.68333C11.03 2.96435 11.4002 2.47642 11.9275 2.23677C12.3133 2.05844 12.8298 2.00356 13.2751 1.95624C13.3559 1.94765 13.4344 1.93932 13.5093 1.93054V1.81854C13.5093 1.79682 13.5095 1.77469 13.5097 1.75227C13.5111 1.55722 13.5128 1.34007 13.4066 1.1771C13.3068 1.0142 13.1079 0.946843 12.9344 0.946843C12.6134 0.946843 12.3289 1.11993 12.2581 1.47785C12.249 1.56122 12.188 1.6279 12.1092 1.64075L11.2937 1.54834C11.253 1.54247 11.2165 1.51923 11.1926 1.4841C11.1688 1.44896 11.1598 1.40505 11.1678 1.36272C11.3555 0.321853 12.2492 0.00857458 13.0498 0.00857458C13.4587 0.00857458 13.9934 0.122921 14.3159 0.448731C14.6944 0.81867 14.6917 1.30171 14.6888 1.83099L14.6888 1.83146C14.6885 1.87798 14.6883 1.92486 14.6883 1.97205V3.35047C14.6883 3.72073 14.8191 3.90521 14.957 4.09957ZM12.7704 4.17439C13.0065 4.17439 13.2195 4.02088 13.3528 3.77261C13.5111 3.47606 13.5109 3.19852 13.5107 2.86868V2.86867L13.5107 2.83356V2.64246C12.9022 2.64246 12.2595 2.77873 12.2595 3.53295C12.2595 3.91593 12.4479 4.17439 12.7704 4.17439ZM15.718 0.251455V0.898375C15.7175 0.942751 15.7344 0.985377 15.7647 1.01631C15.7949 1.04724 15.8359 1.06378 15.8781 1.06206H17.3259L15.6658 3.56829C15.5901 3.70273 15.5543 3.85793 15.5631 4.01393V4.67573C15.5631 4.77128 15.6636 4.88014 15.7597 4.8261C16.6753 4.32686 17.7641 4.32482 18.6814 4.82062C18.7864 4.87779 18.8854 4.76736 18.8854 4.67181V3.97633C18.8826 3.86999 18.8257 3.77342 18.7365 3.72336C18.2531 3.4375 17.6908 3.35369 17.1591 3.36701L18.592 1.21635C18.7253 1.02369 18.7998 0.901508 18.7998 0.808307V0.251455C18.8002 0.20722 18.7834 0.16472 18.7533 0.133811C18.7232 0.102903 18.6824 0.0862688 18.6404 0.0877671H15.8751C15.833 0.0852804 15.7919 0.101671 15.7619 0.132873C15.732 0.164075 15.716 0.207165 15.718 0.251455Z" fill="black"/>
</svg>