<svg xmlns="http://www.w3.org/2000/svg" width="34" height="24" viewBox="0 0 34 24" fill="none">
  <rect x="0.5" y="0.5" width="33" height="23" rx="3.5" fill="#1F72CD"/>
  <rect x="0.5" y="0.5" width="33" height="23" rx="3.5" stroke="#F5F5F5"/>
  <path fill-rule="evenodd" clip-rule="evenodd" d="M6.08137 8.375L2.8999 15.6257H6.70857L7.18073 14.4696H8.25999L8.73216 15.6257H12.9244V14.7433L13.298 15.6257H15.4666L15.8401 14.7247V15.6257H24.5589L25.6191 14.4996L26.6117 15.6257L31.0899 15.635L27.8984 12.0206L31.0899 8.375H26.6812L25.6492 9.48023L24.6878 8.375H15.2029L14.3884 10.2465L13.5548 8.375H9.75411V9.22732L9.3313 8.375H6.08137ZM19.1011 9.4046H24.1078L25.6391 11.1081L27.2198 9.4046H28.7512L26.4245 12.0196L28.7512 14.6044H27.1504L25.619 12.8811L24.0303 14.6044H19.1011V9.4046ZM20.3374 11.4316V10.4819V10.4809H23.4615L24.8246 11.9999L23.4011 13.5271H20.3374V12.4902H23.0688V11.4316H20.3374ZM6.81847 9.4046H8.67499L10.7853 14.3213V9.4046H12.819L14.4489 12.9299L15.9511 9.4046H17.9747V14.6074H16.7434L16.7333 10.5305L14.9382 14.6074H13.8368L12.0316 10.5305V14.6074H9.49852L9.01829 13.441H6.42383L5.9446 14.6064H4.5874L6.81847 9.4046ZM6.86719 12.3628L7.72196 10.2849L8.57574 12.3628H6.86719Z" fill="white"/>
</svg>