<svg xmlns="http://www.w3.org/2000/svg" width="34" height="24" viewBox="0 0 34 24" fill="none">
  <rect x="0.5" y="0.5" width="33" height="23" rx="3.5" fill="white"/>
  <rect x="0.5" y="0.5" width="33" height="23" rx="3.5" stroke="#F5F5F5"/>
  <path fill-rule="evenodd" clip-rule="evenodd" d="M8.25063 8.9333C8.70725 8.97296 9.16386 8.69536 9.44925 8.3434C9.72987 7.98152 9.91537 7.49572 9.86781 7C9.46352 7.01983 8.96409 7.2776 8.67871 7.63948C8.41711 7.95178 8.19356 8.45741 8.25063 8.9333ZM13.6824 15.3182V7.58991H16.4649C17.9013 7.58991 18.9049 8.621 18.9049 10.128C18.9049 11.635 17.8823 12.676 16.4268 12.676H14.8334V15.3182H13.6824ZM9.863 9.02751C9.46073 9.00338 9.09368 9.1536 8.7972 9.27493C8.60641 9.35301 8.44485 9.41913 8.32193 9.41913C8.18399 9.41913 8.01576 9.34947 7.82687 9.27127C7.57936 9.16879 7.29639 9.05163 6.99965 9.05725C6.31949 9.06717 5.68689 9.4687 5.33967 10.1082C4.62621 11.3871 5.15417 13.2808 5.84385 14.3218C6.18155 14.8373 6.58585 15.4024 7.11856 15.3826C7.35293 15.3734 7.52151 15.2988 7.69598 15.2217C7.89685 15.1329 8.10551 15.0406 8.43133 15.0406C8.74585 15.0406 8.94538 15.1304 9.13693 15.2167C9.31906 15.2988 9.49396 15.3775 9.7536 15.3727C10.3053 15.3628 10.6526 14.8572 10.9903 14.3416C11.3547 13.7883 11.5149 13.2483 11.5392 13.1663L11.542 13.1568C11.5414 13.1562 11.5369 13.1541 11.529 13.1503L11.529 13.1503C11.4072 13.0922 10.476 12.6479 10.4671 11.4565C10.4581 10.4566 11.2056 9.94991 11.3233 9.87015C11.3305 9.8653 11.3353 9.86202 11.3375 9.86032C10.8618 9.12666 10.1198 9.04734 9.863 9.02751ZM21.0074 15.3776C21.7303 15.3776 22.401 14.9959 22.7054 14.3911H22.7292V15.3181H23.7946V11.4713C23.7946 10.356 22.9385 9.63719 21.6209 9.63719C20.3986 9.63719 19.4948 10.3659 19.4615 11.3672H20.4984C20.5841 10.8914 21.0074 10.5791 21.5877 10.5791C22.2916 10.5791 22.6864 10.9211 22.6864 11.5507V11.977L21.2499 12.0662C19.9134 12.1505 19.1904 12.7206 19.1904 13.712C19.1904 14.7133 19.9372 15.3776 21.0074 15.3776ZM21.3166 14.4605C20.703 14.4605 20.313 14.1532 20.313 13.6823C20.313 13.1965 20.6887 12.9139 21.407 12.8693L22.6864 12.785V13.2212C22.6864 13.945 22.0966 14.4605 21.3166 14.4605ZM27.3286 15.6205C26.8672 16.9738 26.3393 17.42 25.2168 17.42C25.1311 17.42 24.8458 17.4101 24.7792 17.3902V16.4632C24.8505 16.4732 25.0265 16.4831 25.1169 16.4831C25.6258 16.4831 25.9112 16.26 26.0872 15.68L26.1918 15.338L24.2417 9.71157H25.4451L26.8006 14.2771H26.8244L28.18 9.71157H29.3501L27.3286 15.6205ZM14.8333 8.60118H16.1603C17.1591 8.60118 17.7299 9.15638 17.7299 10.1329C17.7299 11.1095 17.1591 11.6697 16.1555 11.6697H14.8333V8.60118Z" fill="black"/>
</svg>