<svg xmlns="http://www.w3.org/2000/svg" width="25" height="10" viewBox="0 0 25 10" fill="none">
  <path fill-rule="evenodd" clip-rule="evenodd" d="M11.2026 7.82225V4.8876H12.7174C13.3382 4.8876 13.8622 4.67963 14.2893 4.26948L14.3918 4.16549C15.172 3.31629 15.1208 1.99339 14.2893 1.20774C13.8736 0.791804 13.304 0.566506 12.7174 0.57806H10.2856V7.82225H11.2026ZM11.2026 3.99797V1.4677H12.7406C13.0709 1.4677 13.3842 1.59479 13.6177 1.82587C14.1133 2.31112 14.1247 3.11989 13.6462 3.62247C13.4127 3.87088 13.0823 4.00952 12.7406 3.99797H11.2026ZM18.6691 3.25277C18.2761 2.88883 17.7408 2.70397 17.063 2.70397C16.1917 2.70397 15.5368 3.02748 15.1039 3.66871L15.9126 4.18285C16.2088 3.74381 16.6131 3.52429 17.1257 3.52429C17.4503 3.52429 17.7635 3.6456 18.0084 3.86512C18.2476 4.07309 18.3843 4.37349 18.3843 4.69121V4.90496C18.0312 4.70854 17.587 4.60456 17.0403 4.60456C16.4024 4.60456 15.8899 4.75476 15.5083 5.06093C15.1267 5.36711 14.9331 5.77149 14.9331 6.28563C14.9217 6.75355 15.121 7.19837 15.4741 7.49877C15.8329 7.82227 16.2885 7.98403 16.8239 7.98403C17.456 7.98403 17.9572 7.70096 18.3387 7.13483H18.3786V7.82227H19.2557V4.76631C19.2557 4.12508 19.062 3.61672 18.6691 3.25277ZM16.1805 6.90947C15.9926 6.77083 15.8787 6.54553 15.8787 6.3029C15.8787 6.03139 16.004 5.80609 16.2489 5.62701C16.4995 5.44793 16.8128 5.3555 17.183 5.3555C17.6957 5.34972 18.0944 5.46526 18.3792 5.69633C18.3792 6.08916 18.2254 6.42999 17.9235 6.71884C17.6501 6.99613 17.2799 7.1521 16.8925 7.1521C16.6362 7.15788 16.3856 7.07122 16.1805 6.90947ZM21.2259 10.0002L24.2899 2.86575H23.2932L21.8752 6.4243H21.8581L20.4058 2.86575H19.4092L21.4195 7.50457L20.2805 10.0002H21.2259Z" fill="#3C4043"/>
  <path d="M8.03736 4.25211C8.03736 3.96905 8.01458 3.68598 7.96902 3.40869H4.10205V5.00888H6.31744C6.22632 5.52302 5.93018 5.98517 5.49735 6.27402V7.31385H6.81861C7.59314 6.59174 8.03736 5.52302 8.03736 4.25211Z" fill="#4285F4"/>
  <path d="M4.10189 8.31917C5.20673 8.31917 6.14073 7.94945 6.81845 7.31399L5.49718 6.27416C5.127 6.52834 4.65431 6.67276 4.10189 6.67276C3.03121 6.67276 2.12569 5.9391 1.80107 4.95703H0.439941V6.03153C1.13474 7.43531 2.55282 8.31917 4.10189 8.31917Z" fill="#34A853"/>
  <path d="M1.80136 4.95659C1.63048 4.44245 1.63048 3.88209 1.80136 3.36218V2.29346H0.440016C-0.146672 3.46616 -0.146672 4.85261 0.440016 6.02531L1.80136 4.95659Z" fill="#FBBC04"/>
  <path d="M4.10189 1.64666C4.68848 1.6351 5.2523 1.8604 5.67373 2.27056L6.84692 1.08052C6.10087 0.375748 5.12131 -0.0113023 4.10189 0.000251415C2.55282 0.000251415 1.13474 0.889888 0.439941 2.29367L1.80107 3.36816C2.12569 2.38032 3.03121 1.64666 4.10189 1.64666Z" fill="#EA4335"/>
</svg>