<svg xmlns="http://www.w3.org/2000/svg" width="23" height="14" viewBox="0 0 23 14" fill="none">
  <path fill-rule="evenodd" clip-rule="evenodd" d="M11.1801 11.7994C9.99591 12.7975 8.45982 13.4 6.7813 13.4C3.03609 13.4 0 10.4003 0 6.69999C0 2.99969 3.03609 0 6.7813 0C8.45982 0 9.99591 0.602527 11.1801 1.60061C12.3642 0.602527 13.9003 0 15.5789 0C19.3241 0 22.3602 2.99969 22.3602 6.69999C22.3602 10.4003 19.3241 13.4 15.5789 13.4C13.9003 13.4 12.3642 12.7975 11.1801 11.7994Z" fill="#ED0006"/>
  <path fill-rule="evenodd" clip-rule="evenodd" d="M11.1797 11.7995C12.6378 10.5706 13.5624 8.74198 13.5624 6.69999C13.5624 4.658 12.6378 2.82938 11.1797 1.60047C12.3638 0.602471 13.8999 0 15.5783 0C19.3235 0 22.3596 2.99969 22.3596 6.69999C22.3596 10.4003 19.3235 13.4 15.5783 13.4C13.8999 13.4 12.3638 12.7975 11.1797 11.7995Z" fill="#F9A000"/>
  <path fill-rule="evenodd" clip-rule="evenodd" d="M11.1804 11.7993C12.6384 10.5704 13.5629 8.74183 13.5629 6.69994C13.5629 4.65804 12.6384 2.82949 11.1804 1.60059C9.72235 2.82949 8.79785 4.65804 8.79785 6.69994C8.79785 8.74183 9.72235 10.5704 11.1804 11.7993Z" fill="#FF5E00"/>
</svg>