<svg xmlns="http://www.w3.org/2000/svg" width="18" height="18" viewBox="0 0 18 18" fill="none">
                                    <path d="M0 1.03448V1.70068H15.724V1.03448C15.724 0.463447 15.2927 0 14.7612 0H0.962772C0.431322 0 0 0.463447 0 1.03448Z" fill="white" />
                                    <path d="M0 9.41793C0 9.98896 0.431322 10.4524 0.962771 10.4524H8.9788C8.99421 9.83793 9.46212 9.34343 10.0379 9.34343H10.9236V9.01653C10.9236 8.21998 10.3209 7.57447 9.5815 7.57447H9.53336C8.89793 7.57447 8.3453 8.05861 8.21821 8.72688C8.17008 8.98136 8.04107 9.21308 7.85621 9.37653C7.66751 9.54412 7.42874 9.63722 7.1842 9.63722H7.12836C6.81257 9.63722 6.51411 9.48619 6.31383 9.22343C6.1136 8.96069 6.03272 8.61931 6.09434 8.28621C6.24838 7.44208 6.67585 6.67242 7.29586 6.12001C7.60395 5.84484 7.95055 5.62967 8.3241 5.4807C8.71113 5.3276 9.11935 5.24898 9.53527 5.24898H9.58341C10.0571 5.24898 10.5153 5.34829 10.9486 5.54484C11.3664 5.73519 11.7419 6.00622 12.0635 6.35174C12.385 6.69725 12.6373 7.1007 12.8144 7.54964C12.9974 8.01516 13.0898 8.50759 13.0898 9.01653V9.34345H15.7278V3.42002H0V9.41793ZM0.982027 8.85931C0.982027 8.58412 1.18806 8.36276 1.44416 8.36276H3.94351C4.19961 8.36276 4.40564 8.58412 4.40564 8.85931V8.90276C4.40564 9.17793 4.19961 9.39931 3.94351 9.39931H1.44416C1.18806 9.39931 0.982027 9.17793 0.982027 8.90276V8.85931Z" fill="white" />
                                    <path d="M12.5083 9.34553V9.01861C12.5083 7.28069 11.197 5.87173 9.57955 5.87173H9.53141C8.11036 5.87173 6.9223 6.96414 6.6585 8.40827C6.60073 8.72484 6.82602 9.01861 7.12641 9.01861H7.18225C7.41137 9.01861 7.60392 8.84275 7.65015 8.60275C7.82923 7.66344 8.60522 6.95379 9.53141 6.95379H9.57955C10.6405 6.95379 11.4993 7.87862 11.4993 9.01654V9.34346H12.5083V9.34553Z" fill="white" />
                                    <path d="M17.5186 9.96624H10.0379C9.78178 9.96624 9.5719 10.1814 9.55649 10.4545C9.55649 10.4649 9.55649 10.4731 9.55649 10.4835V17.4828C9.55649 17.7683 9.77216 18 10.0379 18H17.5186C17.7843 18 18 17.7683 18 17.4828V10.4835C18 10.1959 17.7843 9.96624 17.5186 9.96624ZM14.2818 14.3793V15.8979C14.2818 16.08 14.1431 16.229 13.9737 16.229H13.5828C13.4133 16.229 13.2747 16.08 13.2747 15.8979V14.3793C13.0667 14.2779 12.8915 14.1166 12.7664 13.9138C12.6489 13.7235 12.5757 13.5 12.5642 13.2579C12.5622 13.2352 12.5622 13.2124 12.5622 13.1917C12.5622 12.9042 12.6489 12.6373 12.7972 12.42C12.878 12.3021 12.9743 12.2007 13.086 12.118C13.2824 11.971 13.5212 11.8862 13.7773 11.8862C14.4474 11.8862 14.9923 12.4697 14.9923 13.1917C14.9923 13.7193 14.7015 14.1724 14.2818 14.3793Z" fill="white" />
                                </svg>