<svg xmlns="http://www.w3.org/2000/svg" width="22" height="20" viewBox="0 0 22 20" fill="none">
                                    <path d="M8.3464 8.42717C9.36101 8.99618 10.6378 9.41326 10.6378 9.41326C10.7553 9.44453 10.9369 9.47178 11 9.47178C11.0623 9.47178 11.2438 9.44453 11.3613 9.41326C11.3613 9.41326 12.6373 8.99618 13.6527 8.42717C15.1978 7.56489 17.7041 5.87234 17.7041 3.48626C17.7041 1.06606 16.0318 -0.0306148 14.192 0.000649414C12.789 0.0214536 11.9602 0.700273 11.4043 1.3694C11.3025 1.49361 11.1508 1.57293 11 1.57617C10.8483 1.57293 10.6966 1.49361 10.5957 1.3694C10.0398 0.700273 9.21019 0.0214536 7.80711 0.000649414C5.96643 -0.0306148 4.29589 1.06606 4.29589 3.48626C4.29589 5.87234 6.80122 7.56493 8.3464 8.42717ZM6.96698 1.51619C7.10814 1.37442 7.28441 1.25419 7.4861 1.15399C7.68519 1.05564 7.94387 1.10767 8.064 1.27067C8.18507 1.43363 8.121 1.6458 7.92191 1.7438C7.78952 1.80984 7.69217 1.87878 7.62022 1.95161C7.47379 2.09952 7.20808 2.12141 7.02742 2.00117C6.84771 1.88094 6.82055 1.66414 6.96698 1.51619ZM5.98043 3.71279C5.98043 3.48236 6.00938 3.26842 6.07161 3.07168C6.13035 2.88715 6.36103 2.77695 6.58553 2.82543C6.81089 2.87317 6.94501 3.06165 6.88717 3.24576C6.84596 3.37356 6.8223 3.52934 6.8223 3.71279C6.8223 3.89443 6.84511 4.10336 6.8933 4.33742C6.97047 4.71221 7.16518 5.0604 7.45013 5.3874C7.5852 5.5421 7.54135 5.75747 7.35192 5.86806C7.16165 5.9786 6.89942 5.9427 6.7644 5.78766C6.41977 5.39384 6.16458 4.94657 6.06284 4.45229C6.00848 4.18739 5.98043 3.94183 5.98043 3.71279Z" fill="white" />
                                    <path d="M21.6041 11.0336C21.0727 10.5594 20.0826 10.6603 19.4205 11.0612C18.8155 11.474 14.679 13.6997 14.679 13.6997H9.65152L9.63568 13.7061C9.37086 13.699 9.16395 13.5169 9.17177 13.3005C9.18144 13.0837 9.4042 12.9139 9.66727 12.9214L9.65147 12.9139C10.5503 12.9139 13.3556 12.9139 13.3556 12.9139C14.0992 12.9139 14.7026 12.4206 14.7026 11.8122C14.7026 11.2027 14.0992 10.7091 13.3556 10.7091C12.6821 10.7091 11.336 10.7091 7.96948 10.7091C4.60206 10.7091 3.53573 11.8582 2.35715 12.8224L0.219224 14.3516C0.0797693 14.4507 0 14.5932 0 14.7447V19.8267C0 19.8938 0.0491251 19.9559 0.12451 19.9843C0.199942 20.0123 0.288527 20.0026 0.351654 19.9577L4.48372 17.0572C4.62931 16.956 4.82397 16.9129 5.01165 16.9405L11.4518 17.899C11.9008 17.9657 12.363 17.8814 12.7374 17.6657C12.7374 17.6657 20.956 12.9865 21.5637 12.5726C22.1416 12.1382 22.1355 11.5078 21.6041 11.0336Z" fill="white" />
                                </svg>