<svg xmlns="http://www.w3.org/2000/svg" width="18" height="18" viewBox="0 0 18 18" fill="none">
                                    <path d="M12.7774 0H5.23161C1.95397 0 0 1.953 0 5.229V12.762C0 16.047 1.95397 18 5.23161 18H12.7684C16.046 18 18 16.047 18 12.771V5.229C18.009 1.953 16.055 0 12.7774 0ZM5.97898 4.635C6.24011 4.374 6.67232 4.374 6.93345 4.635L10.8774 8.577V6.39C10.8774 6.021 11.1836 5.715 11.5528 5.715C11.9219 5.715 12.2281 6.021 12.2281 6.39V10.206C12.2281 10.296 12.2101 10.377 12.1741 10.467C12.102 10.629 11.976 10.764 11.8049 10.836C11.7238 10.872 11.6338 10.89 11.5438 10.89H7.72585C7.35667 10.89 7.05051 10.584 7.05051 10.215C7.05051 9.846 7.35667 9.54 7.72585 9.54H9.91394L5.97898 5.589C5.71785 5.328 5.71785 4.905 5.97898 4.635ZM14.6233 13.698C12.8134 14.301 10.9134 14.607 9.00449 14.607C7.09554 14.607 5.19559 14.301 3.38569 13.698C3.03451 13.581 2.84542 13.194 2.96248 12.843C3.07953 12.492 3.45772 12.294 3.8179 12.42C7.16757 13.536 10.8504 13.536 14.2001 12.42C14.5513 12.303 14.9384 12.492 15.0555 12.843C15.1636 13.203 14.9745 13.581 14.6233 13.698Z" fill="white" />
                                </svg>