<svg xmlns="http://www.w3.org/2000/svg" width="22" height="16" viewBox="0 0 22 16" fill="none">
  <path d="M21.5398 2.42C21.2868 1.46758 20.5416 0.716834 19.5947 0.462C17.8796 1.63913e-07 11 0 11 0C11 0 4.12042 1.63913e-07 2.40442 0.462C1.45842 0.716834 0.713167 1.46667 0.460167 2.42C0 4.147 0 7.7495 0 7.7495C0 7.7495 0 11.352 0.460167 13.079C0.713167 14.0314 1.45842 14.7822 2.40533 15.037C4.12042 15.499 11 15.499 11 15.499C11 15.499 17.8796 15.499 19.5956 15.037C20.5416 14.7822 21.2868 14.0323 21.5408 13.079C22 11.352 22 7.7495 22 7.7495C22 7.7495 22 4.147 21.5398 2.42ZM8.7505 11.0211V4.47792L14.4998 7.7495L8.7505 11.0211Z" fill="white"/>
</svg>